<?xml version="1.0" standalone="no"?><!-- Generator: Gravit.io --><svg xmlns="http://www.w3.org/2000/svg" xmlns:xlink="http://www.w3.org/1999/xlink" style="isolation:isolate" viewBox="363.167 78.232 26.5 27.331" width="26.5" height="27.331"><g id="Group"><path d="M 373.119 78.732 L 379.715 78.732 C 380.097 78.732 380.407 79.042 380.407 79.425 L 380.407 82.71 C 380.407 83.092 380.097 83.403 379.715 83.403 L 373.119 83.403 C 372.737 83.403 372.426 83.092 372.426 82.71 L 372.426 79.425 C 372.426 79.042 372.737 78.732 373.119 78.732 Z" style="stroke:none;fill:#FFFFFF;stroke-miterlimit:10;"/><path d="M 373.119 78.732 L 379.715 78.732 C 380.097 78.732 380.407 79.042 380.407 79.425 L 380.407 82.71 C 380.407 83.092 380.097 83.403 379.715 83.403 L 373.119 83.403 C 372.737 83.403 372.426 83.092 372.426 82.71 L 372.426 79.425 C 372.426 79.042 372.737 78.732 373.119 78.732 Z" style="fill:none;stroke:#FFFFFF;stroke-width:0.5;stroke-linecap:square;stroke-miterlimit:2;"/><path d=" M 374.556 81.827 L 374.556 79.747 L 374.9 79.585 L 374.918 79.585 L 374.918 81.827 L 374.918 81.827 Q 374.918 81.952 375.137 82.038 L 375.137 82.038 L 375.137 82.038 Q 375.289 82.098 375.469 82.098 L 375.469 82.098 L 375.469 82.098 Q 375.65 82.098 375.802 82.038 L 375.802 82.038 L 375.802 82.038 Q 376.021 81.952 376.021 81.827 L 376.021 81.827 L 376.021 79.747 L 376.365 79.585 L 376.383 79.585 L 376.383 81.827 L 376.383 81.827 Q 376.383 81.952 376.601 82.038 L 376.601 82.038 L 376.601 82.038 Q 376.753 82.098 376.934 82.098 L 376.934 82.098 L 376.934 82.098 Q 377.115 82.098 377.267 82.038 L 377.267 82.038 L 377.267 82.038 Q 377.486 81.952 377.486 81.827 L 377.486 81.827 L 377.486 79.747 L 377.829 79.585 L 377.847 79.585 L 377.847 81.827 L 377.847 81.827 Q 377.847 82.158 377.437 82.328 L 377.437 82.328 L 377.437 82.328 Q 377.207 82.424 376.934 82.424 L 376.934 82.424 L 376.934 82.424 Q 376.659 82.424 376.431 82.328 L 376.431 82.328 L 376.431 82.328 Q 376.294 82.27 376.202 82.196 L 376.202 82.196 L 376.202 82.196 Q 376.11 82.27 375.972 82.328 L 375.972 82.328 L 375.972 82.328 Q 375.744 82.424 375.469 82.424 L 375.469 82.424 L 375.469 82.424 Q 375.196 82.424 374.967 82.328 L 374.967 82.328 L 374.967 82.328 Q 374.556 82.158 374.556 81.827 L 374.556 81.827 L 374.556 81.827 Z " id="Path" fill="rgb(86,15,128)"/><path d="M 364.359 84.197 L 370.955 84.197 C 371.337 84.197 371.648 84.508 371.648 84.89 L 371.648 88.175 C 371.648 88.558 371.337 88.868 370.955 88.868 L 364.359 88.868 C 363.977 88.868 363.667 88.558 363.667 88.175 L 363.667 84.89 C 363.667 84.508 363.977 84.197 364.359 84.197 Z" style="stroke:none;fill:#FFFFFF;stroke-linecap:square;stroke-miterlimit:2;"/><path d="M 364.359 84.197 L 370.955 84.197 C 371.337 84.197 371.648 84.508 371.648 84.89 L 371.648 88.175 C 371.648 88.558 371.337 88.868 370.955 88.868 L 364.359 88.868 C 363.977 88.868 363.667 88.558 363.667 88.175 L 363.667 84.89 C 363.667 84.508 363.977 84.197 364.359 84.197 Z" style="fill:none;stroke:#FFFFFF;stroke-width:0.5;stroke-linecap:square;stroke-miterlimit:2;"/><path d=" M 366.555 87.925 L 366.537 87.925 L 366.537 85.683 L 366.537 85.683 Q 366.537 85.352 366.948 85.182 L 366.948 85.182 L 366.948 85.182 Q 367.178 85.086 367.451 85.086 L 367.451 85.086 L 367.451 85.086 Q 367.724 85.086 367.953 85.182 L 367.953 85.182 L 367.953 85.182 Q 368.364 85.352 368.364 85.683 L 368.364 85.683 L 368.364 85.683 Q 368.364 85.683 368.364 87.762 L 368.364 87.762 L 368.02 87.925 L 368.002 87.925 L 368.002 86.652 L 366.899 86.652 L 366.899 87.762 L 366.555 87.925 L 366.555 87.925 Z  M 366.899 85.683 L 366.899 86.323 L 368.002 86.323 L 368.002 85.683 L 368.002 85.683 Q 368.002 85.558 367.783 85.471 L 367.783 85.471 L 367.783 85.471 Q 367.631 85.411 367.451 85.411 L 367.451 85.411 L 367.451 85.411 Q 367.27 85.411 367.118 85.471 L 367.118 85.471 L 367.118 85.471 Q 366.899 85.558 366.899 85.683 L 366.899 85.683 L 366.899 85.683 Z " fill-rule="evenodd" id="Compound Path" fill="rgb(86,15,128)"/><path d="M 373.119 84.197 L 379.715 84.197 C 380.097 84.197 380.407 84.508 380.407 84.89 L 380.407 88.175 C 380.407 88.558 380.097 88.868 379.715 88.868 L 373.119 88.868 C 372.737 88.868 372.426 88.558 372.426 88.175 L 372.426 84.89 C 372.426 84.508 372.737 84.197 373.119 84.197 Z" style="stroke:none;fill:#FFFFFF;stroke-linecap:square;stroke-miterlimit:2;"/><path d="M 373.119 84.197 L 379.715 84.197 C 380.097 84.197 380.407 84.508 380.407 84.89 L 380.407 88.175 C 380.407 88.558 380.097 88.868 379.715 88.868 L 373.119 88.868 C 372.737 88.868 372.426 88.558 372.426 88.175 L 372.426 84.89 C 372.426 84.508 372.737 84.197 373.119 84.197 Z" style="fill:none;stroke:#FFFFFF;stroke-width:0.5;stroke-linecap:square;stroke-miterlimit:2;"/><path d=" M 375.317 87.292 L 375.317 87.021 L 375.661 86.858 L 375.679 86.858 L 375.679 87.292 L 375.679 87.292 Q 375.679 87.417 375.898 87.504 L 375.898 87.504 L 375.898 87.504 Q 376.05 87.563 376.23 87.563 L 376.23 87.563 L 376.23 87.563 Q 376.411 87.563 376.563 87.504 L 376.563 87.504 L 376.563 87.504 Q 376.782 87.417 376.782 87.292 L 376.782 87.292 L 376.782 86.766 L 376.782 86.766 Q 376.782 86.639 376.563 86.554 L 376.563 86.554 L 376.563 86.554 Q 376.411 86.495 376.23 86.495 L 376.23 86.495 L 376.23 86.495 Q 376.001 86.495 375.818 86.424 L 375.818 86.424 L 375.818 86.424 Q 375.48 86.29 375.48 86.052 L 375.48 86.052 L 375.48 85.529 L 375.48 85.529 Q 375.48 85.287 375.818 85.156 L 375.818 85.156 L 375.818 85.156 Q 376.001 85.086 376.23 85.086 L 376.23 85.086 L 376.23 85.086 Q 376.46 85.086 376.643 85.156 L 376.643 85.156 L 376.643 85.156 Q 376.981 85.29 376.981 85.529 L 376.981 85.529 L 376.981 85.76 L 376.637 85.923 L 376.619 85.923 L 376.619 85.592 L 376.619 85.592 Q 376.619 85.502 376.506 85.457 L 376.506 85.457 L 376.506 85.457 Q 376.393 85.411 376.23 85.411 L 376.23 85.411 L 376.23 85.411 Q 376.068 85.411 375.955 85.457 L 375.955 85.457 L 375.955 85.457 Q 375.842 85.502 375.842 85.592 L 375.842 85.592 L 375.842 85.988 L 375.842 85.988 Q 375.842 86.079 375.955 86.124 L 375.955 86.124 L 375.955 86.124 Q 376.068 86.169 376.23 86.169 L 376.23 86.169 L 376.23 86.169 Q 376.503 86.169 376.733 86.265 L 376.733 86.265 L 376.733 86.265 Q 377.144 86.435 377.144 86.766 L 377.144 86.766 L 377.144 87.292 L 377.144 87.292 Q 377.144 87.621 376.733 87.793 L 376.733 87.793 L 376.733 87.793 Q 376.503 87.889 376.23 87.889 L 376.23 87.889 L 376.23 87.889 Q 375.957 87.889 375.728 87.793 L 375.728 87.793 L 375.728 87.793 Q 375.317 87.623 375.317 87.292 L 375.317 87.292 L 375.317 87.292 Z " id="Path" fill="rgb(86,15,128)"/><path d="M 381.878 84.197 L 388.474 84.197 C 388.856 84.197 389.167 84.508 389.167 84.89 L 389.167 88.175 C 389.167 88.558 388.856 88.868 388.474 88.868 L 381.878 88.868 C 381.496 88.868 381.186 88.558 381.186 88.175 L 381.186 84.89 C 381.186 84.508 381.496 84.197 381.878 84.197 Z" style="stroke:none;fill:#FFFFFF;stroke-linecap:square;stroke-miterlimit:2;"/><path d="M 381.878 84.197 L 388.474 84.197 C 388.856 84.197 389.167 84.508 389.167 84.89 L 389.167 88.175 C 389.167 88.558 388.856 88.868 388.474 88.868 L 381.878 88.868 C 381.496 88.868 381.186 88.558 381.186 88.175 L 381.186 84.89 C 381.186 84.508 381.496 84.197 381.878 84.197 Z" style="fill:none;stroke:#FFFFFF;stroke-width:0.5;stroke-linecap:square;stroke-miterlimit:2;"/><path d=" M 384.418 85.448 L 384.418 87.527 L 384.934 87.527 L 384.934 87.527 Q 385.114 87.527 385.266 87.468 L 385.266 87.468 L 385.266 87.468 Q 385.485 87.381 385.485 87.256 L 385.485 87.256 L 385.485 85.719 L 385.485 85.719 Q 385.485 85.594 385.266 85.507 L 385.266 85.507 L 385.266 85.507 Q 385.116 85.448 384.934 85.448 L 384.934 85.448 L 384.418 85.448 L 384.418 85.448 Z  M 384.934 87.853 L 384.056 87.853 L 384.056 85.213 L 384.248 85.122 L 384.934 85.122 L 384.934 85.122 Q 385.207 85.122 385.436 85.218 L 385.436 85.218 L 385.436 85.218 Q 385.847 85.388 385.847 85.719 L 385.847 85.719 L 385.847 87.256 L 385.847 87.256 Q 385.847 87.587 385.436 87.757 L 385.436 87.757 L 385.436 87.757 Q 385.207 87.853 384.934 87.853 L 384.934 87.853 L 384.934 87.853 Z " fill-rule="evenodd" id="Compound Path" fill="rgb(86,15,128)"/><path d="M 373.119 94.927 L 379.715 94.927 C 380.097 94.927 380.407 95.237 380.407 95.62 L 380.407 98.905 C 380.407 99.287 380.097 99.598 379.715 99.598 L 373.119 99.598 C 372.737 99.598 372.426 99.287 372.426 98.905 L 372.426 95.62 C 372.426 95.237 372.737 94.927 373.119 94.927 Z" style="stroke:none;fill:#FFFFFF;stroke-linecap:square;stroke-miterlimit:2;"/><path d="M 373.119 94.927 L 379.715 94.927 C 380.097 94.927 380.407 95.237 380.407 95.62 L 380.407 98.905 C 380.407 99.287 380.097 99.598 379.715 99.598 L 373.119 99.598 C 372.737 99.598 372.426 99.287 372.426 98.905 L 372.426 95.62 C 372.426 95.237 372.737 94.927 373.119 94.927 Z" style="fill:none;stroke:#FFFFFF;stroke-width:0.5;stroke-linecap:square;stroke-miterlimit:2;"/><path d="M 364.359 100.392 L 370.955 100.392 C 371.337 100.392 371.648 100.703 371.648 101.085 L 371.648 104.37 C 371.648 104.753 371.337 105.063 370.955 105.063 L 364.359 105.063 C 363.977 105.063 363.667 104.753 363.667 104.37 L 363.667 101.085 C 363.667 100.703 363.977 100.392 364.359 100.392 Z" style="stroke:none;fill:#FFFFFF;stroke-linecap:square;stroke-miterlimit:2;"/><path d="M 364.359 100.392 L 370.955 100.392 C 371.337 100.392 371.648 100.703 371.648 101.085 L 371.648 104.37 C 371.648 104.753 371.337 105.063 370.955 105.063 L 364.359 105.063 C 363.977 105.063 363.667 104.753 363.667 104.37 L 363.667 101.085 C 363.667 100.703 363.977 100.392 364.359 100.392 Z" style="fill:none;stroke:#FFFFFF;stroke-width:0.5;stroke-linecap:square;stroke-miterlimit:2;"/><path d="M 373.119 100.392 L 379.715 100.392 C 380.097 100.392 380.407 100.703 380.407 101.085 L 380.407 104.37 C 380.407 104.753 380.097 105.063 379.715 105.063 L 373.119 105.063 C 372.737 105.063 372.426 104.753 372.426 104.37 L 372.426 101.085 C 372.426 100.703 372.737 100.392 373.119 100.392 Z" style="stroke:none;fill:#FFFFFF;stroke-linecap:square;stroke-miterlimit:2;"/><path d="M 373.119 100.392 L 379.715 100.392 C 380.097 100.392 380.407 100.703 380.407 101.085 L 380.407 104.37 C 380.407 104.753 380.097 105.063 379.715 105.063 L 373.119 105.063 C 372.737 105.063 372.426 104.753 372.426 104.37 L 372.426 101.085 C 372.426 100.703 372.737 100.392 373.119 100.392 Z" style="fill:none;stroke:#FFFFFF;stroke-width:0.5;stroke-linecap:square;stroke-miterlimit:2;"/><path d="M 381.878 100.392 L 388.474 100.392 C 388.856 100.392 389.167 100.703 389.167 101.085 L 389.167 104.37 C 389.167 104.753 388.856 105.063 388.474 105.063 L 381.878 105.063 C 381.496 105.063 381.186 104.753 381.186 104.37 L 381.186 101.085 C 381.186 100.703 381.496 100.392 381.878 100.392 Z" style="stroke:none;fill:#FFFFFF;stroke-linecap:square;stroke-miterlimit:2;"/><path d="M 381.878 100.392 L 388.474 100.392 C 388.856 100.392 389.167 100.703 389.167 101.085 L 389.167 104.37 C 389.167 104.753 388.856 105.063 388.474 105.063 L 381.878 105.063 C 381.496 105.063 381.186 104.753 381.186 104.37 L 381.186 101.085 C 381.186 100.703 381.496 100.392 381.878 100.392 Z" style="fill:none;stroke:#FFFFFF;stroke-width:0.5;stroke-linecap:square;stroke-miterlimit:2;"/><polygon points="377.643,98.324,375.19,98.324,376.417,96.2" id="Polygon" fill="rgb(86,15,128)"/><polygon points="375.19,101.666,377.643,101.666,376.417,103.79" id="Polygon" fill="rgb(86,15,128)"/><polygon points="368.782,101.501,368.782,103.954,366.658,102.728" id="Polygon" fill="rgb(86,15,128)"/><polygon points="384.114,103.954,384.114,101.501,386.238,102.728" id="Polygon" fill="rgb(86,15,128)"/></g></svg>