<?xml version="1.0" standalone="no"?><!-- Generator: Gravit.io --><svg xmlns="http://www.w3.org/2000/svg" xmlns:xlink="http://www.w3.org/1999/xlink" style="isolation:isolate" viewBox="147.625 193.509 244.311 82.325" width="244.311" height="82.325"><g id="Group"><path d=" M 178.24 272.35 C 176.709 273.913 174.568 272.404 175.76 270.65 C 176.952 268.896 177.4 268.58 178.43 267.74 C 179.52 266.84 180.69 266.04 181.94 265.36 C 183.28 264.62 184.67 263.96 186.1 263.39 C 187.62 262.78 189.17 262.23 190.75 261.75 C 194.06 260.74 197.42 259.89 200.81 259.2 C 204.11 258.52 207.42 257.89 210.73 257.31 C 213.4 256.85 216.05 256.34 218.69 255.78 C 220.67 255.38 222.66 255.07 224.67 254.88 C 227.37 254.58 230.08 254.35 232.79 254.18 C 239.57 253.74 246.37 253.44 253.17 253.27 C 260.44 253.06 267.71 252.92 274.98 252.85 C 281.07 252.78 287.16 252.75 293.25 252.75 C 301.34 252.76 309.42 252.94 317.5 253.29 C 325.41 253.64 333.31 254.06 341.21 254.54 C 343.88 254.7 346.54 254.85 349.21 255 C 353.97 255.27 358.72 255.69 363.46 256.27 C 367.86 256.82 372.24 257.53 376.59 258.4 C 380.81 259.25 385 260.24 389.16 261.37 C 393.38 262.53 392.53 265.41 388.36 264.27 C 384.28 263.15 380.15 262.17 376 261.34 C 371.72 260.49 367.42 259.79 363.09 259.25 C 358.42 258.68 353.74 258.26 349.04 258 C 346.37 257.85 343.7 257.69 341.03 257.54 C 333.15 257.06 325.26 256.64 317.37 256.29 C 309.33 255.94 301.29 255.76 293.25 255.75 C 287.17 255.75 281.09 255.78 275.01 255.85 C 267.75 255.92 260.5 256.06 253.25 256.27 C 246.49 256.44 239.73 256.74 232.98 257.17 C 230.31 257.34 227.64 257.57 224.98 257.86 C 223.07 258.05 221.18 258.33 219.31 258.72 C 216.63 259.28 213.94 259.8 211.25 260.26 C 207.96 260.84 204.68 261.46 201.41 262.14 C 198.11 262.81 194.85 263.64 191.62 264.62 C 190.13 265.07 188.66 265.59 187.21 266.17 C 185.9 266.7 184.62 267.3 183.38 267.99 C 182.3 268.58 181.13 269.38 180.33 270.05 C 179.53 270.72 179.771 270.787 178.24 272.35 Z " id="Path" fill="rgb(255,255,255)"/><path d=" M 197.142 213.749 L 197.142 213.749 L 197.142 213.749 Q 197.147 214.188 197.134 214.609 L 197.134 214.609 L 197.134 214.609 Q 197.12 215.031 197.089 215.47 L 197.089 215.47 L 197.089 215.47 Q 197.057 215.91 197.062 216.349 L 197.062 216.349 L 197.062 216.349 Q 197.067 216.789 197.072 217.228 L 197.072 217.228 L 197.072 217.228 Q 197.08 217.887 196.867 218.438 L 196.867 218.438 L 196.867 218.438 Q 196.653 218.99 195.811 219 L 195.811 219 L 195.811 219 Q 195.519 219.003 194.84 218.901 L 194.84 218.901 L 194.84 218.901 Q 194.162 218.799 193.445 218.588 L 193.445 218.588 L 193.445 218.588 Q 192.729 218.377 192.176 218.072 L 192.176 218.072 L 192.176 218.072 Q 191.623 217.767 191.619 217.364 L 191.619 217.364 L 191.619 217.364 Q 191.617 217.218 191.773 216.447 L 191.773 216.447 L 191.773 216.447 Q 191.929 215.676 192.138 214.777 L 192.138 214.777 L 192.138 214.777 Q 192.347 213.878 192.522 213.125 L 192.522 213.125 L 192.522 213.125 Q 192.696 212.372 192.768 212.298 L 192.768 212.298 L 192.769 212.335 L 192.769 212.335 Q 192.947 211.93 193.129 211.855 L 193.129 211.855 L 193.129 211.855 Q 193.311 211.779 193.714 211.775 L 193.714 211.775 L 193.714 211.775 Q 194.153 211.77 194.74 211.854 L 194.74 211.854 L 194.74 211.854 Q 195.327 211.939 195.861 212.171 L 195.861 212.171 L 195.861 212.171 Q 196.394 212.403 196.765 212.783 L 196.765 212.783 L 196.765 212.783 Q 197.135 213.163 197.142 213.749 Z  M 203.929 237.066 L 203.929 237.066 L 203.929 237.066 Q 203.932 237.286 203.593 238.077 L 203.593 238.077 L 203.593 238.077 Q 203.254 238.868 202.754 239.899 L 202.754 239.899 L 202.754 239.899 Q 202.253 240.93 201.68 242.053 L 201.68 242.053 L 201.68 242.053 Q 201.107 243.176 200.678 244.06 L 200.678 244.06 L 200.678 244.06 Q 200.464 244.502 200.321 244.851 L 200.321 244.851 L 200.321 244.851 Q 200.179 245.201 200.071 245.385 L 200.071 245.385 L 200.423 247.358 L 200.423 247.358 Q 201.131 251.561 201.766 255.8 L 201.766 255.8 L 201.766 255.8 Q 202.401 260.04 202.451 264.36 L 202.451 264.36 L 202.451 264.36 Q 202.466 265.641 202.427 267.015 L 202.427 267.015 L 202.427 267.015 Q 202.388 268.388 202.128 269.709 L 202.128 269.709 L 202.128 269.709 Q 201.869 271.03 201.279 272.227 L 201.279 272.227 L 201.279 272.227 Q 200.689 273.424 199.6 274.315 L 199.6 274.315 L 199.6 274.315 Q 198.766 274.984 197.782 275.38 L 197.782 275.38 L 197.782 275.38 Q 196.798 275.775 195.737 275.788 L 195.737 275.788 L 195.737 275.788 Q 193.723 275.811 192.414 274.966 L 192.414 274.966 L 192.414 274.966 Q 191.104 274.12 190.32 272.775 L 190.32 272.775 L 190.32 272.775 Q 189.535 271.429 189.205 269.767 L 189.205 269.767 L 189.205 269.767 Q 188.874 268.105 188.855 266.458 L 188.855 266.458 L 188.855 266.458 Q 188.822 263.566 189.356 260.704 L 189.356 260.704 L 189.356 260.704 Q 189.89 257.842 190.773 255.049 L 190.773 255.049 L 190.773 255.049 Q 191.656 252.256 192.779 249.57 L 192.779 249.57 L 192.779 249.57 Q 193.901 246.885 195.042 244.272 L 195.042 244.272 L 195.042 244.272 Q 194.455 240.983 194.088 237.747 L 194.088 237.747 L 194.088 237.747 Q 193.721 234.511 193.462 231.073 L 193.462 231.073 L 193.331 229.317 L 193.331 229.317 Q 193.242 227.963 193.135 226.61 L 193.135 226.61 L 193.135 226.61 Q 193.028 225.256 193.012 223.865 L 193.012 223.865 L 193.012 223.865 Q 193.004 223.133 193.235 222.599 L 193.235 222.599 L 193.235 222.599 Q 193.467 222.066 194.309 222.056 L 194.309 222.056 L 194.309 222.056 Q 194.712 222.051 195.079 222.12 L 195.079 222.12 L 195.079 222.12 Q 195.446 222.189 195.85 222.368 L 195.85 222.368 L 195.85 222.331 L 195.85 222.331 Q 196.549 222.653 196.92 223.069 L 196.92 223.069 L 196.92 223.069 Q 197.291 223.486 197.48 223.96 L 197.48 223.96 L 197.48 223.96 Q 197.668 224.434 197.73 224.982 L 197.73 224.982 L 197.73 224.982 Q 197.791 225.531 197.798 226.116 L 197.798 226.116 L 197.805 226.702 L 197.805 226.702 Q 197.944 229.263 198.134 231.476 L 198.134 231.476 L 198.134 231.476 Q 198.325 233.689 198.647 236.248 L 198.647 236.248 L 198.647 236.248 Q 198.969 235.586 199.42 235.013 L 199.42 235.013 L 199.42 235.013 Q 199.871 234.44 200.677 234.431 L 200.677 234.431 L 200.677 234.431 Q 201.079 234.426 201.65 234.676 L 201.65 234.676 L 201.65 234.676 Q 202.22 234.926 202.719 235.323 L 202.719 235.323 L 202.719 235.323 Q 203.218 235.72 203.571 236.191 L 203.571 236.191 L 203.571 236.191 Q 203.924 236.663 203.929 237.066 Z  M 197.535 263.538 L 197.535 263.538 L 197.535 263.538 Q 197.507 261.122 197.24 258.599 L 197.24 258.599 L 197.24 258.599 Q 196.973 256.076 196.578 253.627 L 196.578 253.627 L 196.578 253.627 Q 195.514 256.568 194.746 259.818 L 194.746 259.818 L 194.746 259.818 Q 193.978 263.067 194.014 266.142 L 194.014 266.142 L 194.014 266.142 Q 194.021 266.764 194.066 267.514 L 194.066 267.514 L 194.066 267.514 Q 194.112 268.264 194.267 269.031 L 194.267 269.031 L 194.267 269.031 Q 194.422 269.798 194.687 270.491 L 194.687 270.491 L 194.687 270.491 Q 194.951 271.184 195.395 271.618 L 195.395 271.618 L 195.395 271.618 Q 195.432 271.654 195.615 271.652 L 195.615 271.652 L 195.615 271.652 Q 196.091 271.646 196.415 271.148 L 196.415 271.148 L 196.415 271.148 Q 196.739 270.65 196.95 269.879 L 196.95 269.879 L 196.95 269.879 Q 197.16 269.108 197.277 268.154 L 197.277 268.154 L 197.277 268.154 Q 197.395 267.201 197.457 266.303 L 197.457 266.303 L 197.457 266.303 Q 197.52 265.406 197.53 264.655 L 197.53 264.655 L 197.53 264.655 Q 197.539 263.904 197.535 263.538 Z  M 219.394 241.5 L 219.394 241.5 L 219.394 241.5 Q 219.407 242.599 218.817 243.777 L 218.817 243.777 L 218.817 243.777 Q 218.226 244.955 217.286 245.937 L 217.286 245.937 L 217.286 245.937 Q 216.345 246.918 215.126 247.554 L 215.126 247.554 L 215.126 247.554 Q 213.907 248.191 212.699 248.205 L 212.699 248.205 L 212.699 248.205 Q 210.978 248.225 209.726 247.562 L 209.726 247.562 L 209.726 247.562 Q 208.473 246.899 207.544 245.756 L 207.544 245.756 L 207.544 245.756 Q 206.616 244.614 206.032 243.156 L 206.032 243.156 L 206.032 243.156 Q 205.447 241.698 205.1 240.146 L 205.1 240.146 L 205.1 240.146 Q 204.752 238.594 204.606 237.04 L 204.606 237.04 L 204.606 237.04 Q 204.46 235.486 204.445 234.204 L 204.445 234.204 L 204.445 234.204 Q 204.432 233.106 204.543 231.604 L 204.543 231.604 L 204.543 231.604 Q 204.654 230.101 204.946 228.487 L 204.946 228.487 L 204.946 228.487 Q 205.239 226.872 205.77 225.292 L 205.77 225.292 L 205.77 225.292 Q 206.301 223.711 207.11 222.457 L 207.11 222.457 L 207.11 222.457 Q 207.919 221.203 209.064 220.421 L 209.064 220.421 L 209.064 220.421 Q 210.208 219.639 211.709 219.621 L 211.709 219.621 L 211.709 219.621 Q 212.88 219.608 213.819 220.073 L 213.819 220.073 L 213.819 220.073 Q 214.758 220.538 215.408 221.318 L 215.408 221.318 L 215.408 221.318 Q 216.058 222.097 216.417 223.118 L 216.417 223.118 L 216.417 223.118 Q 216.777 224.139 216.79 225.238 L 216.79 225.238 L 216.79 225.238 Q 216.806 226.665 216.167 228.357 L 216.167 228.357 L 216.167 228.357 Q 215.527 230.049 214.502 231.635 L 214.502 231.635 L 214.502 231.635 Q 213.477 233.221 212.192 234.499 L 212.192 234.499 L 212.192 234.499 Q 210.907 235.777 209.634 236.451 L 209.634 236.451 L 209.634 236.451 Q 209.714 237.109 209.949 238.369 L 209.949 238.369 L 209.949 238.369 Q 210.183 239.63 210.582 240.87 L 210.582 240.87 L 210.582 240.87 Q 210.981 242.11 211.522 243.019 L 211.522 243.019 L 211.522 243.019 Q 212.063 243.928 212.796 243.92 L 212.796 243.92 L 212.796 243.92 Q 213.162 243.916 213.434 243.693 L 213.434 243.693 L 213.434 243.693 Q 213.706 243.47 213.921 243.101 L 213.921 243.101 L 213.921 243.101 Q 214.136 242.733 214.296 242.292 L 214.296 242.292 L 214.296 242.292 Q 214.456 241.85 214.598 241.446 L 214.598 241.446 L 214.811 240.931 L 214.811 240.931 Q 214.883 240.82 214.901 240.783 L 214.901 240.783 L 214.901 240.783 Q 214.919 240.747 214.955 240.673 L 214.955 240.673 L 214.955 240.673 Q 215.205 240.194 215.439 239.789 L 215.439 239.789 L 215.439 239.789 Q 215.672 239.383 216.108 239.085 L 216.108 239.085 L 216.071 239.086 L 216.071 239.086 Q 216.216 238.938 216.381 238.917 L 216.381 238.917 L 216.381 238.917 Q 216.545 238.897 216.692 238.895 L 216.692 238.895 L 216.692 238.895 Q 217.094 238.891 217.573 239.141 L 217.573 239.141 L 217.573 239.141 Q 218.052 239.392 218.459 239.772 L 218.459 239.772 L 218.459 239.772 Q 218.866 240.152 219.128 240.606 L 219.128 240.606 L 219.128 240.606 Q 219.389 241.061 219.394 241.5 Z  M 211.959 225.44 L 211.959 225.44 L 211.959 225.44 Q 211.955 225.074 211.914 224.672 L 211.914 224.672 L 211.914 224.672 Q 211.872 224.269 211.723 223.978 L 211.723 223.978 L 211.723 223.978 Q 211.217 224.606 210.843 225.471 L 210.843 225.471 L 210.843 225.471 Q 210.468 226.336 210.223 227.272 L 210.223 227.272 L 210.223 227.272 Q 209.978 228.209 209.824 229.163 L 209.824 229.163 L 209.824 229.163 Q 209.67 230.116 209.606 230.923 L 209.606 230.923 L 209.606 230.923 Q 210.545 229.777 211.26 228.322 L 211.26 228.322 L 211.26 228.322 Q 211.976 226.868 211.959 225.44 Z  M 236.907 232.986 L 236.907 232.986 L 236.907 232.986 Q 236.944 236.171 236.45 239.344 L 236.45 239.344 L 236.45 239.344 Q 235.955 242.517 234.341 245.355 L 234.341 245.355 L 234.341 245.355 Q 233.838 246.203 233.188 246.997 L 233.188 246.997 L 233.188 246.997 Q 232.538 247.792 231.759 248.442 L 231.759 248.442 L 231.759 248.442 Q 230.979 249.092 230.05 249.487 L 230.05 249.487 L 230.05 249.487 Q 229.121 249.882 228.096 249.894 L 228.096 249.894 L 228.096 249.894 Q 226.485 249.912 225.286 249.176 L 225.286 249.176 L 225.286 249.176 Q 224.088 248.439 223.214 247.223 L 223.214 247.223 L 223.214 247.223 Q 222.339 246.006 221.754 244.457 L 221.754 244.457 L 221.754 244.457 Q 221.168 242.908 220.838 241.282 L 220.838 241.282 L 220.838 241.282 Q 220.508 239.657 220.362 238.121 L 220.362 238.121 L 220.362 238.121 Q 220.216 236.585 220.203 235.413 L 220.203 235.413 L 220.203 235.413 Q 220.187 234.095 220.279 232.52 L 220.279 232.52 L 220.279 232.52 Q 220.371 230.944 220.626 229.294 L 220.626 229.294 L 220.626 229.294 Q 220.882 227.643 221.321 226.027 L 221.321 226.027 L 221.321 226.027 Q 221.76 224.411 222.475 222.993 L 222.475 222.993 L 222.475 222.993 Q 223.191 221.575 224.203 220.447 L 224.203 220.447 L 224.203 220.447 Q 225.216 219.319 226.562 218.644 L 226.562 218.644 L 226.563 218.681 L 226.563 218.681 Q 227.727 218.045 228.899 218.031 L 228.899 218.031 L 228.899 218.031 Q 229.631 218.023 230.037 218.329 L 230.037 218.329 L 230.037 218.329 Q 230.443 218.636 230.415 219.368 L 230.415 219.368 L 230.415 219.368 Q 232.433 219.711 233.696 221.271 L 233.696 221.271 L 233.696 221.271 Q 234.959 222.83 235.66 224.909 L 235.66 224.909 L 235.66 224.909 Q 236.361 226.988 236.625 229.182 L 236.625 229.182 L 236.625 229.182 Q 236.888 231.376 236.907 232.986 Z  M 228.527 223.93 L 228.527 223.93 L 228.527 223.93 Q 227.905 223.937 227.35 223.468 L 227.35 223.468 L 227.35 223.468 Q 226.667 224.537 226.207 225.916 L 226.207 225.916 L 226.207 225.916 Q 225.747 227.294 225.489 228.743 L 225.489 228.743 L 225.489 228.743 Q 225.232 230.192 225.139 231.658 L 225.139 231.658 L 225.139 231.658 Q 225.046 233.124 225.061 234.405 L 225.061 234.405 L 225.061 234.405 Q 225.073 235.467 225.202 237.131 L 225.202 237.131 L 225.202 237.131 Q 225.331 238.795 225.662 240.476 L 225.662 240.476 L 225.662 240.476 Q 225.992 242.156 226.577 243.614 L 226.577 243.614 L 226.577 243.614 Q 227.161 245.072 228.084 245.757 L 228.084 245.757 L 228.084 245.757 Q 229.212 245.085 229.945 243.63 L 229.945 243.63 L 229.945 243.63 Q 230.679 242.175 231.099 240.449 L 231.099 240.449 L 231.099 240.449 Q 231.518 238.724 231.662 236.965 L 231.662 236.965 L 231.662 236.965 Q 231.807 235.206 231.792 233.961 L 231.792 233.961 L 231.792 233.961 Q 231.782 233.046 231.655 231.583 L 231.655 231.583 L 231.655 231.583 Q 231.528 230.12 231.254 228.603 L 231.254 228.603 L 231.254 228.603 Q 230.98 227.087 230.508 225.774 L 230.508 225.774 L 230.508 225.774 Q 230.035 224.462 229.332 223.811 L 229.332 223.811 L 229.332 223.811 Q 229.003 223.925 228.527 223.93 Z  M 252.918 221.268 L 252.918 221.268 L 252.918 221.268 Q 252.976 226.32 252.246 231.234 L 252.246 231.234 L 252.246 231.234 Q 251.515 236.149 250.474 241.031 L 250.474 241.031 L 250.474 241.031 Q 250.333 241.508 250.3 241.838 L 250.3 241.838 L 250.3 241.838 Q 250.092 242.902 249.867 244.022 L 249.867 244.022 L 249.867 244.022 Q 249.642 245.141 249.143 246.245 L 249.143 246.245 L 249.143 246.245 Q 248.677 247.166 247.861 247.853 L 247.861 247.853 L 247.861 247.853 Q 247.046 248.539 246.057 248.551 L 246.057 248.551 L 246.057 248.551 Q 245.655 248.556 245.213 248.378 L 245.213 248.378 L 245.213 248.378 Q 244.772 248.2 244.256 247.913 L 244.256 247.913 L 244.256 247.913 Q 243.518 247.409 243.141 246.516 L 243.141 246.516 L 243.141 246.516 Q 242.765 245.623 242.497 244.674 L 242.497 244.674 L 242.421 244.419 L 242.422 244.456 L 242.422 244.456 Q 241.772 242.083 241.323 239.709 L 241.323 239.709 L 241.323 239.709 Q 240.875 237.334 240.444 234.923 L 240.444 234.923 L 240.444 234.923 Q 240.207 233.424 239.97 231.944 L 239.97 231.944 L 239.97 231.944 Q 239.733 230.464 239.424 229.003 L 239.424 229.003 L 238.886 226.849 L 238.886 226.849 Q 238.695 226.119 238.483 225.261 L 238.483 225.261 L 238.483 225.261 Q 238.272 224.403 238.08 223.636 L 238.08 223.636 L 238.08 223.636 Q 237.888 222.87 237.771 222.267 L 237.771 222.267 L 237.771 222.267 Q 237.654 221.664 237.652 221.445 L 237.652 221.445 L 237.652 221.445 Q 237.644 220.749 238.099 220.506 L 238.099 220.506 L 238.099 220.506 Q 238.554 220.263 239.139 220.256 L 239.139 220.256 L 239.139 220.256 Q 240.311 220.242 241.214 220.744 L 241.214 220.744 L 241.214 220.744 Q 242.116 221.247 242.533 222.413 L 242.533 222.413 L 242.533 222.413 Q 242.76 223.033 242.932 223.727 L 242.932 223.727 L 242.932 223.727 Q 243.105 224.42 243.223 225.115 L 243.223 225.115 L 243.223 225.115 Q 243.873 227.524 244.472 230.208 L 244.472 230.208 L 244.472 230.208 Q 245.07 232.892 245.502 235.377 L 245.502 235.377 L 245.853 237.24 L 245.853 237.24 Q 245.892 237.422 245.893 237.532 L 245.893 237.532 L 245.893 237.532 Q 245.894 237.642 245.913 237.715 L 245.913 237.715 L 245.913 237.715 Q 245.933 237.788 245.952 237.898 L 245.952 237.898 L 245.952 237.898 Q 245.972 238.007 246.011 238.227 L 246.011 238.227 L 246.011 238.227 Q 246.771 234.337 247.275 230.432 L 247.275 230.432 L 247.275 230.432 Q 247.779 226.526 247.734 222.573 L 247.734 222.573 L 247.734 222.573 Q 247.724 221.767 247.624 221 L 247.624 221 L 247.624 221 Q 247.523 220.232 247.404 219.391 L 247.404 219.391 L 247.404 219.391 Q 247.285 218.624 247.184 217.801 L 247.184 217.801 L 247.184 217.801 Q 247.083 216.979 247.073 216.137 L 247.073 216.137 L 247.073 216.137 Q 247.064 215.368 247.537 215.069 L 247.537 215.069 L 247.537 215.069 Q 248.009 214.771 248.705 214.763 L 248.705 214.763 L 248.705 214.763 Q 249.547 214.753 250.244 214.855 L 250.244 214.855 L 250.244 214.855 Q 250.941 214.957 251.457 215.262 L 251.457 215.262 L 251.457 215.262 Q 251.973 215.567 252.309 216.131 L 252.309 216.131 L 252.309 216.131 Q 252.645 216.694 252.765 217.608 L 252.765 217.608 L 252.765 217.608 Q 252.848 218.45 252.878 219.419 L 252.878 219.419 L 252.878 219.419 Q 252.907 220.389 252.918 221.268 Z  M 271.56 247.121 L 271.56 247.121 L 271.56 247.121 Q 271.568 247.853 271.206 248.132 L 271.206 248.132 L 271.206 248.132 Q 270.843 248.41 270.184 248.418 L 270.184 248.418 L 270.184 248.418 Q 268.463 248.438 267.702 247.531 L 267.702 247.531 L 267.702 247.531 Q 266.941 246.625 266.558 245.128 L 266.558 245.128 L 266.558 245.128 Q 266.442 244.617 266.326 244.087 L 266.326 244.087 L 266.326 244.087 Q 266.21 243.558 266.131 243.046 L 266.131 243.046 L 266.131 243.046 Q 266.052 242.571 265.977 242.389 L 265.977 242.389 L 265.977 242.389 Q 265.901 242.207 265.822 241.695 L 265.822 241.695 L 265.822 241.695 Q 265.395 242.762 264.768 243.922 L 264.768 243.922 L 264.768 243.922 Q 264.141 245.083 263.31 246.063 L 263.31 246.063 L 263.31 246.063 Q 262.479 247.043 261.443 247.677 L 261.443 247.677 L 261.443 247.677 Q 260.407 248.312 259.162 248.326 L 259.162 248.326 L 259.162 248.326 Q 257.844 248.341 256.958 247.711 L 256.958 247.711 L 256.958 247.711 Q 256.072 247.08 255.567 246.116 L 255.567 246.116 L 255.567 246.116 Q 255.061 245.151 254.846 243.982 L 254.846 243.982 L 254.846 243.982 Q 254.631 242.813 254.619 241.752 L 254.619 241.752 L 254.619 241.752 Q 254.59 239.262 255.051 236.346 L 255.051 236.346 L 255.051 236.346 Q 255.511 233.43 256.356 230.51 L 256.356 230.51 L 256.356 230.51 Q 257.201 227.589 258.342 224.885 L 258.342 224.885 L 258.342 224.885 Q 259.482 222.181 260.85 220.151 L 260.85 220.151 L 260.85 220.188 L 261.066 219.856 L 261.066 219.856 Q 261.462 219.302 261.986 218.655 L 261.986 218.655 L 261.986 218.655 Q 262.509 218.008 263.241 218 L 263.241 218 L 263.241 218 Q 263.937 217.992 264.456 218.59 L 264.456 218.59 L 264.456 218.59 Q 264.976 219.188 265.203 219.844 L 265.203 219.844 L 265.203 219.844 Q 266.157 220.016 266.746 220.284 L 266.746 220.284 L 266.746 220.284 Q 267.335 220.552 267.669 220.951 L 267.669 220.951 L 267.669 220.951 Q 268.003 221.35 268.119 221.879 L 268.119 221.879 L 268.119 221.879 Q 268.235 222.409 268.242 223.031 L 268.242 223.031 L 268.242 223.031 Q 268.245 223.287 268.249 223.58 L 268.249 223.58 L 268.249 223.58 Q 268.252 223.873 268.219 224.166 L 268.219 224.166 L 268.219 224.166 Q 268.186 224.46 268.19 224.862 L 268.19 224.862 L 268.19 224.862 Q 268.195 225.265 268.199 225.594 L 268.199 225.594 L 268.199 225.594 Q 268.203 225.961 268.338 226.545 L 268.338 226.545 L 268.338 226.545 Q 268.473 227.129 268.626 227.75 L 268.626 227.75 L 268.898 229.101 L 268.898 229.101 Q 269.094 230.161 269.237 231.514 L 269.237 231.514 L 269.237 231.514 Q 269.381 232.867 269.58 234.219 L 269.58 234.219 L 269.58 234.219 Q 269.743 235.609 269.904 236.906 L 269.904 236.906 L 269.904 236.906 Q 270.065 238.204 270.225 239.301 L 270.225 239.301 L 271.166 244.709 L 271.283 245.33 L 271.283 245.33 Q 271.362 245.805 271.458 246.207 L 271.458 246.207 L 271.458 246.207 Q 271.554 246.608 271.56 247.121 Z  M 262.933 226.168 L 262.933 226.168 L 262.933 226.168 Q 262.932 226.095 262.894 225.93 L 262.894 225.93 L 262.894 225.93 Q 262.855 225.766 262.816 225.584 L 262.816 225.584 L 262.816 225.584 Q 261.995 227.387 261.379 229.499 L 261.379 229.499 L 261.379 229.499 Q 260.763 231.612 260.367 233.795 L 260.367 233.795 L 260.367 233.795 Q 259.971 235.978 259.795 238.159 L 259.795 238.159 L 259.795 238.159 Q 259.619 240.339 259.641 242.279 L 259.641 242.279 L 259.641 242.279 Q 259.643 242.462 259.645 242.609 L 259.645 242.609 L 259.645 242.609 Q 259.647 242.755 259.685 242.901 L 259.685 242.901 L 259.686 242.938 L 259.686 242.938 Q 260.548 241.573 261.163 239.351 L 261.163 239.351 L 261.163 239.351 Q 261.778 237.129 262.19 234.689 L 262.19 234.689 L 262.19 234.689 Q 262.601 232.25 262.776 229.959 L 262.776 229.959 L 262.776 229.959 Q 262.95 227.669 262.933 226.168 Z  M 294.984 243.225 L 294.984 243.225 L 294.984 243.225 Q 294.996 244.287 294.476 245.208 L 294.476 245.208 L 294.476 245.208 Q 293.956 246.129 292.972 246.543 L 292.972 246.543 L 292.972 246.543 Q 292.644 246.694 291.547 246.798 L 291.547 246.798 L 291.547 246.798 Q 290.45 246.902 288.913 246.993 L 288.913 246.993 L 288.913 246.993 Q 287.376 247.084 285.62 247.141 L 285.62 247.141 L 285.62 247.141 Q 283.863 247.198 282.252 247.235 L 282.252 247.235 L 282.252 247.235 Q 280.642 247.272 279.397 247.286 L 279.397 247.286 L 279.397 247.286 Q 278.152 247.301 277.603 247.307 L 277.603 247.307 L 277.603 247.307 Q 277.388 247.712 276.989 247.991 L 276.989 247.991 L 276.989 247.991 Q 276.589 248.271 276.077 248.277 L 276.077 248.277 L 276.077 248.277 Q 275.601 248.282 274.939 248.052 L 274.939 248.052 L 274.939 248.052 Q 274.277 247.821 273.669 247.426 L 273.669 247.426 L 273.669 247.426 Q 273.06 247.03 272.615 246.523 L 272.615 246.523 L 272.615 246.523 Q 272.17 246.015 272.163 245.466 L 272.163 245.466 L 272.163 245.466 Q 272.158 244.99 272.368 244.219 L 272.368 244.219 L 272.368 244.219 Q 272.579 243.448 272.881 242.62 L 272.881 242.62 L 272.881 242.62 Q 273.183 241.793 273.466 240.984 L 273.466 240.984 L 273.466 240.984 Q 273.75 240.175 273.927 239.661 L 273.927 239.661 L 281.001 218.197 L 284.752 206.95 L 284.752 206.95 Q 285.389 205.075 285.971 203.183 L 285.971 203.183 L 285.971 203.183 Q 286.553 201.291 287.374 199.45 L 287.374 199.45 L 287.374 199.45 Q 286.204 199.537 285.033 199.587 L 285.033 199.587 L 285.033 199.587 Q 283.862 199.638 282.69 199.651 L 282.69 199.651 L 282.69 199.651 Q 282.361 199.655 281.537 199.664 L 281.537 199.664 L 281.537 199.664 Q 280.713 199.674 279.67 199.668 L 279.67 199.668 L 279.67 199.668 Q 278.626 199.662 277.473 199.657 L 277.473 199.657 L 277.473 199.657 Q 276.319 199.652 275.312 199.608 L 275.312 199.608 L 275.312 199.608 Q 274.305 199.565 273.59 199.5 L 273.59 199.5 L 273.59 199.5 Q 272.875 199.435 272.728 199.327 L 272.728 199.327 L 272.728 199.327 Q 272.212 199.077 272.206 198.528 L 272.206 198.528 L 272.206 198.528 Q 272.193 197.466 272.882 196.854 L 272.882 196.854 L 272.882 196.854 Q 273.571 196.242 274.556 195.938 L 274.556 195.938 L 274.556 195.938 Q 275.541 195.633 276.62 195.547 L 276.62 195.547 L 276.62 195.547 Q 277.699 195.462 278.468 195.453 L 278.468 195.453 L 278.468 195.453 Q 279.346 195.443 280.226 195.506 L 280.226 195.506 L 280.226 195.506 Q 281.105 195.569 281.984 195.559 L 281.984 195.559 L 281.984 195.559 Q 283.814 195.537 285.606 195.37 L 285.606 195.37 L 285.606 195.37 Q 287.398 195.203 289.156 195.183 L 289.156 195.183 L 289.156 195.183 Q 289.778 195.176 290.512 195.295 L 290.512 195.295 L 290.512 195.295 Q 291.245 195.415 291.853 195.719 L 291.853 195.719 L 291.853 195.719 Q 292.46 196.023 292.869 196.531 L 292.869 196.531 L 292.869 196.531 Q 293.278 197.039 293.287 197.844 L 293.287 197.844 L 293.287 197.844 Q 293.295 198.503 293.045 199.037 L 293.045 199.037 L 293.045 199.037 Q 292.794 199.571 292.509 200.197 L 292.509 200.197 L 292.509 200.197 Q 291.263 203.323 290.311 206.464 L 290.311 206.464 L 290.311 206.464 Q 289.359 209.606 288.334 212.767 L 288.334 212.767 L 288.334 212.767 Q 285.896 220.374 283.585 227.924 L 283.585 227.924 L 283.585 227.924 Q 281.274 235.475 278.873 243.118 L 278.873 243.118 L 278.873 243.118 Q 280.373 243.028 281.873 242.956 L 281.873 242.956 L 281.873 242.956 Q 283.374 242.883 284.873 242.756 L 284.873 242.756 L 284.873 242.756 Q 286.958 242.549 289.041 242.214 L 289.041 242.214 L 289.041 242.214 Q 291.124 241.878 293.284 241.853 L 293.284 241.853 L 293.284 241.853 Q 293.943 241.846 294.459 242.151 L 294.459 242.151 L 294.459 242.151 Q 294.975 242.456 294.984 243.225 Z  M 323.017 239.019 L 323.017 239.019 L 323.017 239.019 Q 323.025 239.642 322.537 240.233 L 322.537 240.233 L 322.537 240.233 Q 322.05 240.825 321.361 241.382 L 321.361 241.382 L 321.361 241.382 Q 320.671 241.939 319.945 242.405 L 319.945 242.405 L 319.945 242.405 Q 319.218 242.871 318.745 243.17 L 318.745 243.17 L 318.745 243.17 Q 317.51 243.989 316.291 244.699 L 316.291 244.699 L 316.291 244.699 Q 315.073 245.409 313.779 245.936 L 313.779 245.936 L 313.779 245.936 Q 312.486 246.464 311.116 246.773 L 311.116 246.773 L 311.116 246.773 Q 309.747 247.081 308.246 247.099 L 308.246 247.099 L 307.661 247.179 L 307.661 247.179 Q 306.453 247.193 305.26 246.932 L 305.26 246.932 L 305.26 246.932 Q 304.067 246.671 303.036 246.116 L 303.036 246.116 L 303.036 246.116 Q 302.004 245.56 301.188 244.691 L 301.188 244.691 L 301.188 244.691 Q 300.373 243.822 299.919 242.582 L 299.919 242.582 L 299.919 242.582 Q 299.578 241.597 299.38 240.245 L 299.38 240.245 L 299.38 240.245 Q 299.181 238.893 299.072 237.429 L 299.072 237.429 L 299.072 237.429 Q 298.964 235.966 298.893 234.557 L 298.893 234.557 L 298.893 234.557 Q 298.821 233.148 298.772 232.051 L 298.772 232.051 L 298.772 232.051 Q 298.093 220.855 297.634 209.657 L 297.634 209.657 L 297.634 209.657 Q 297.546 208.376 297.495 207.095 L 297.495 207.095 L 297.495 207.095 Q 297.443 205.814 297.428 204.533 L 297.428 204.533 L 297.428 204.533 Q 297.403 202.337 297.642 200.796 L 297.642 200.796 L 297.642 200.796 Q 297.88 199.256 298.637 198.258 L 298.637 198.258 L 298.637 198.258 Q 299.395 197.261 300.836 196.805 L 300.836 196.805 L 300.836 196.805 Q 302.277 196.349 304.656 196.321 L 304.656 196.321 L 304.656 196.321 Q 307.036 196.294 309.434 196.303 L 309.434 196.303 L 309.434 196.303 Q 311.832 196.312 314.248 196.284 L 314.248 196.284 L 314.248 196.284 Q 314.98 196.275 315.712 196.212 L 315.712 196.212 L 315.712 196.212 Q 316.443 196.148 317.178 196.323 L 317.178 196.323 L 317.178 196.323 Q 317.618 196.391 317.949 196.552 L 317.949 196.552 L 317.949 196.552 Q 318.281 196.713 318.287 197.262 L 318.287 197.262 L 318.287 197.262 Q 318.302 198.58 317.431 199.231 L 317.431 199.231 L 317.431 199.231 Q 316.56 199.882 315.354 200.115 L 315.354 200.115 L 315.354 200.115 Q 314.149 200.349 312.849 200.346 L 312.849 200.346 L 312.849 200.346 Q 311.549 200.342 310.707 200.352 L 310.707 200.352 L 305.948 200.407 L 305.948 200.407 Q 305.216 200.416 304.484 200.424 L 304.484 200.424 L 304.484 200.424 Q 303.752 200.433 303.02 200.514 L 303.02 200.514 L 303.02 200.514 Q 302.807 201.066 302.741 201.652 L 302.741 201.652 L 302.741 201.652 Q 302.674 202.239 302.681 202.861 L 302.681 202.861 L 302.681 202.861 Q 302.728 206.852 302.974 210.73 L 302.974 210.73 L 302.974 210.73 Q 303.22 214.608 303.449 218.596 L 303.449 218.596 L 303.449 218.596 Q 305.717 218.387 307.947 218.105 L 307.947 218.105 L 307.947 218.105 Q 310.177 217.823 312.443 217.467 L 312.443 217.467 L 312.443 217.467 Q 312.773 217.463 313.047 217.423 L 313.047 217.423 L 313.047 217.423 Q 313.321 217.383 313.614 217.38 L 313.614 217.38 L 313.614 217.38 Q 314.382 217.371 314.698 217.77 L 314.698 217.77 L 314.698 217.77 Q 315.014 218.169 315.023 218.902 L 315.023 218.902 L 315.023 218.902 Q 315.029 219.414 314.979 219.854 L 314.979 219.854 L 314.979 219.854 Q 314.929 220.294 314.751 220.735 L 314.751 220.735 L 314.751 220.735 Q 314.503 221.47 313.921 221.807 L 313.921 221.807 L 313.921 221.807 Q 313.339 222.143 312.609 222.28 L 312.609 222.28 L 312.609 222.28 Q 311.878 222.416 311.091 222.425 L 311.091 222.425 L 311.091 222.425 Q 310.304 222.434 309.719 222.478 L 309.719 222.478 L 309.719 222.478 Q 308.182 222.569 306.7 222.623 L 306.7 222.623 L 306.7 222.623 Q 305.217 222.676 303.717 222.767 L 303.717 222.767 L 303.717 222.767 Q 303.763 223.535 303.854 225.072 L 303.854 225.072 L 303.854 225.072 Q 303.945 226.609 304.059 228.53 L 304.059 228.53 L 304.059 228.53 Q 304.172 230.45 304.324 232.499 L 304.324 232.499 L 304.324 232.499 Q 304.476 234.548 304.643 236.358 L 304.643 236.358 L 304.643 236.358 Q 304.811 238.168 305.01 239.521 L 305.01 239.521 L 305.01 239.521 Q 305.208 240.873 305.397 241.347 L 305.397 241.347 L 305.397 241.347 Q 305.808 242.111 306.324 242.343 L 306.324 242.343 L 306.324 242.343 Q 306.839 242.575 307.681 242.565 L 307.681 242.565 L 307.681 242.565 Q 309.036 242.55 310.53 242.001 L 310.53 242.001 L 310.53 242.001 Q 312.025 241.453 313.443 240.613 L 313.443 240.613 L 313.443 240.613 Q 314.861 239.773 316.15 238.769 L 316.15 238.769 L 316.15 238.769 Q 317.438 237.766 318.379 236.803 L 318.379 236.803 L 318.379 236.803 Q 318.777 236.469 319.176 236.117 L 319.176 236.117 L 319.176 236.117 Q 319.575 235.764 320.124 235.758 L 320.124 235.758 L 320.124 235.758 Q 320.673 235.751 321.189 236.075 L 321.189 236.075 L 321.189 236.075 Q 321.706 236.398 322.114 236.888 L 322.114 236.888 L 322.114 236.888 Q 322.522 237.378 322.767 237.961 L 322.767 237.961 L 322.767 237.961 Q 323.012 238.543 323.017 239.019 Z  M 353.603 246.501 L 353.603 246.501 L 353.603 246.501 Q 353.608 246.94 353.172 247.238 L 353.172 247.238 L 353.172 247.238 Q 352.736 247.536 352.134 247.726 L 352.134 247.726 L 352.134 247.726 Q 351.532 247.916 350.929 247.996 L 350.929 247.996 L 350.929 247.996 Q 350.326 248.076 350.033 248.08 L 350.033 248.08 L 350.033 248.08 Q 349.301 248.088 348.842 247.965 L 348.842 247.965 L 348.842 247.965 Q 348.383 247.842 347.756 247.52 L 347.756 247.52 L 347.756 247.52 Q 347.572 247.412 346.885 246.597 L 346.885 246.597 L 346.885 246.597 Q 346.199 245.781 345.177 244.475 L 345.177 244.475 L 345.177 244.475 Q 344.155 243.168 342.872 241.499 L 342.872 241.499 L 342.872 241.499 Q 341.59 239.83 340.233 238.07 L 340.233 238.07 L 340.233 238.07 Q 338.876 236.31 337.556 234.549 L 337.556 234.549 L 337.556 234.549 Q 336.236 232.789 335.12 231.319 L 335.12 231.319 L 335.12 231.319 Q 334.005 229.849 333.205 228.741 L 333.205 228.741 L 333.205 228.741 Q 332.405 227.634 332.071 227.198 L 332.071 227.198 L 331.852 227.274 L 331.852 227.274 Q 332.122 231.628 332.52 235.962 L 332.52 235.962 L 332.52 235.962 Q 332.918 240.296 333.809 244.533 L 333.809 244.533 L 333.809 244.533 Q 333.924 244.971 334.057 245.445 L 334.057 245.445 L 334.057 245.445 Q 334.191 245.92 334.197 246.432 L 334.197 246.432 L 334.197 246.432 Q 334.207 247.274 333.66 247.519 L 333.66 247.519 L 333.66 247.519 Q 333.114 247.763 332.455 247.771 L 332.455 247.771 L 332.455 247.771 Q 332.089 247.775 331.576 247.744 L 331.576 247.744 L 331.576 247.744 Q 331.063 247.713 330.513 247.61 L 330.513 247.61 L 330.513 247.61 Q 329.962 247.506 329.503 247.347 L 329.503 247.347 L 329.503 247.347 Q 329.043 247.188 328.784 246.934 L 328.784 246.934 L 328.784 246.934 Q 328.267 246.501 328.133 246.027 L 328.133 246.027 L 328.133 246.027 Q 327.999 245.552 327.882 244.894 L 327.882 244.894 L 327.882 244.894 Q 326.735 237.548 326.375 230.138 L 326.375 230.138 L 326.375 230.138 Q 326.014 222.728 325.929 215.334 L 325.929 215.334 L 325.929 215.334 Q 325.891 212.112 325.892 209 L 325.892 209 L 325.892 209 Q 325.893 205.888 325.928 202.666 L 325.928 202.666 L 325.928 202.666 Q 325.489 202.634 325.101 202.382 L 325.101 202.382 L 325.101 202.382 Q 324.714 202.13 324.417 201.749 L 324.417 201.749 L 324.417 201.749 Q 324.119 201.368 323.95 200.949 L 323.95 200.949 L 323.95 200.949 Q 323.78 200.53 323.776 200.128 L 323.776 200.128 L 323.776 200.128 Q 323.771 199.725 323.968 199.32 L 323.968 199.32 L 323.968 199.32 Q 324.164 198.915 324.472 198.582 L 324.472 198.582 L 324.472 198.582 Q 324.779 198.249 325.142 197.952 L 325.142 197.952 L 325.142 197.952 Q 325.504 197.654 325.795 197.468 L 325.795 197.468 L 325.787 196.809 L 325.787 196.809 Q 325.783 196.443 325.796 195.967 L 325.796 195.967 L 325.796 195.967 Q 325.809 195.491 325.932 195.068 L 325.932 195.068 L 325.932 195.068 Q 326.055 194.646 326.345 194.368 L 326.345 194.368 L 326.345 194.368 Q 326.635 194.09 327.22 194.083 L 327.22 194.083 L 327.22 194.083 Q 327.989 194.074 328.761 194.322 L 328.761 194.322 L 328.761 194.322 Q 329.533 194.569 330.089 195.221 L 330.089 195.221 L 330.089 195.221 Q 332.822 194.091 335.861 194.056 L 335.861 194.056 L 335.861 194.056 Q 338.533 194.025 340.742 195.062 L 340.742 195.062 L 340.742 195.062 Q 342.951 196.098 344.527 197.874 L 344.527 197.874 L 344.527 197.874 Q 346.104 199.649 346.973 201.983 L 346.973 201.983 L 346.973 201.983 Q 347.842 204.316 347.872 206.878 L 347.872 206.878 L 347.872 206.878 Q 347.904 209.624 346.908 212.217 L 346.908 212.217 L 346.908 212.217 Q 345.913 214.809 344.293 217.135 L 344.293 217.135 L 344.293 217.135 Q 342.672 219.46 340.589 221.406 L 340.589 221.406 L 340.589 221.406 Q 338.507 223.353 336.363 224.805 L 336.363 224.805 L 336.363 224.805 Q 339.857 229.342 343.442 233.785 L 343.442 233.785 L 343.442 233.785 Q 347.027 238.229 350.776 242.652 L 350.776 242.652 L 350.776 242.652 Q 350.998 242.906 351.462 243.413 L 351.462 243.413 L 351.462 243.413 Q 351.925 243.92 352.408 244.519 L 352.408 244.519 L 352.408 244.519 Q 352.891 245.118 353.245 245.663 L 353.245 245.663 L 353.245 245.663 Q 353.599 246.208 353.603 246.501 Z  M 342.447 206.355 L 342.447 206.355 L 342.447 206.355 Q 342.431 205.001 341.939 203.542 L 341.939 203.542 L 341.939 203.542 Q 341.446 202.083 340.553 200.904 L 340.553 200.904 L 340.553 200.904 Q 339.661 199.724 338.426 198.969 L 338.426 198.969 L 338.426 198.969 Q 337.19 198.215 335.689 198.232 L 335.689 198.232 L 335.689 198.232 Q 334.481 198.246 333.296 198.608 L 333.296 198.608 L 333.296 198.608 Q 332.11 198.969 331.018 199.531 L 331.018 199.531 L 331.018 199.531 Q 331.154 204.985 331.272 210.439 L 331.272 210.439 L 331.272 210.439 Q 331.39 215.893 331.563 221.346 L 331.563 221.346 L 332.223 221.412 L 332.223 221.412 Q 334.115 220.328 335.945 218.696 L 335.945 218.696 L 335.945 218.696 Q 337.775 217.064 339.234 215.07 L 339.234 215.07 L 339.234 215.07 Q 340.694 213.076 341.584 210.85 L 341.584 210.85 L 341.584 210.85 Q 342.473 208.625 342.447 206.355 Z  M 377.148 218.256 L 377.148 218.256 L 377.148 218.256 Q 377.165 219.793 377.134 221.826 L 377.134 221.826 L 377.134 221.826 Q 377.103 223.858 376.928 226.167 L 376.928 226.167 L 376.928 226.167 Q 376.753 228.475 376.397 230.896 L 376.397 230.896 L 376.397 230.896 Q 376.04 233.316 375.445 235.63 L 375.445 235.63 L 375.445 235.63 Q 374.849 237.943 373.958 240.004 L 373.958 240.004 L 373.958 240.004 Q 373.066 242.065 371.803 243.617 L 371.803 243.617 L 371.803 243.617 Q 370.539 245.17 368.866 246.086 L 368.866 246.086 L 368.866 246.086 Q 367.192 247.002 365.032 247.027 L 365.032 247.027 L 365.032 247.027 Q 362.872 247.052 361.103 246.066 L 361.103 246.066 L 361.103 246.066 Q 359.335 245.08 358.107 243.446 L 358.107 243.446 L 358.107 243.446 Q 357.104 242.14 356.331 240.226 L 356.331 240.226 L 356.331 240.226 Q 355.558 238.313 354.965 236.05 L 354.965 236.05 L 354.965 236.05 Q 354.371 233.787 353.94 231.339 L 353.94 231.339 L 353.94 231.339 Q 353.509 228.891 353.243 226.514 L 353.243 226.514 L 353.243 226.514 Q 352.978 224.137 352.843 221.997 L 352.843 221.997 L 352.843 221.997 Q 352.709 219.857 352.69 218.246 L 352.69 218.246 L 352.69 218.246 Q 352.659 215.537 352.862 212.569 L 352.862 212.569 L 352.862 212.569 Q 353.066 209.601 353.691 206.683 L 353.691 206.683 L 353.691 206.683 Q 354.316 203.765 355.42 201.043 L 355.42 201.043 L 355.42 201.043 Q 356.523 198.321 358.292 196.14 L 358.292 196.14 L 358.292 196.14 Q 358.473 195.918 358.744 195.622 L 358.744 195.622 L 358.744 195.622 Q 359.015 195.326 359.341 195.048 L 359.341 195.048 L 359.341 195.048 Q 359.668 194.769 360.013 194.564 L 360.013 194.564 L 360.013 194.564 Q 360.358 194.359 360.688 194.355 L 360.688 194.355 L 360.688 194.355 Q 361.017 194.351 361.331 194.53 L 361.331 194.53 L 361.331 194.53 Q 361.644 194.71 361.867 195 L 361.867 195 L 361.867 195 Q 362.631 194.552 363.489 194.359 L 363.489 194.359 L 363.489 194.359 Q 364.347 194.166 365.226 194.156 L 365.226 194.156 L 365.226 194.156 Q 367.898 194.125 369.835 195.366 L 369.835 195.366 L 369.835 195.366 Q 371.771 196.606 373.076 198.642 L 373.076 198.642 L 373.076 198.642 Q 374.381 200.677 375.18 203.267 L 375.18 203.267 L 375.18 203.267 Q 375.979 205.857 376.413 208.562 L 376.413 208.562 L 376.413 208.562 Q 376.847 211.266 376.986 213.791 L 376.986 213.791 L 376.986 213.791 Q 377.125 216.315 377.148 218.256 Z  M 371.455 219.933 L 371.455 219.933 L 371.455 219.933 Q 371.444 218.981 371.367 217.023 L 371.367 217.023 L 371.367 217.023 Q 371.289 215.065 371.042 212.706 L 371.042 212.706 L 371.042 212.706 Q 370.795 210.348 370.382 207.863 L 370.382 207.863 L 370.382 207.863 Q 369.969 205.378 369.286 203.354 L 369.286 203.354 L 369.286 203.354 Q 368.604 201.329 367.619 200.041 L 367.619 200.041 L 367.619 200.041 Q 366.634 198.753 365.279 198.768 L 365.279 198.768 L 365.279 198.768 Q 364.73 198.775 364.297 199.292 L 364.297 199.292 L 364.297 199.292 Q 363.863 199.81 363.47 200.62 L 363.47 200.62 L 363.47 200.62 Q 363.076 201.43 362.758 202.386 L 362.758 202.386 L 362.758 202.386 Q 362.44 203.341 362.12 204.224 L 362.12 204.224 L 362.12 204.224 Q 361.801 205.106 361.516 205.805 L 361.516 205.805 L 361.516 205.805 Q 361.231 206.504 360.905 206.801 L 360.905 206.801 L 360.905 206.801 Q 360.797 206.912 360.559 206.933 L 360.559 206.933 L 360.559 206.933 Q 360.321 206.954 360.102 206.956 L 360.102 206.956 L 360.102 206.956 Q 359.479 206.964 358.928 206.75 L 358.928 206.75 L 358.928 206.75 Q 358.334 209.247 358.125 211.721 L 358.125 211.721 L 358.125 211.721 Q 357.915 214.195 357.945 216.72 L 357.945 216.72 L 357.945 216.72 Q 357.953 217.489 358.044 219.026 L 358.044 219.026 L 358.044 219.026 Q 358.135 220.563 358.305 222.538 L 358.305 222.538 L 358.305 222.538 Q 358.474 224.513 358.757 226.78 L 358.757 226.78 L 358.757 226.78 Q 359.039 229.046 359.431 231.294 L 359.431 231.294 L 359.431 231.294 Q 359.823 233.541 360.342 235.603 L 360.342 235.603 L 360.342 235.603 Q 360.86 237.666 361.537 239.251 L 361.537 239.251 L 361.537 239.251 Q 362.215 240.836 363.031 241.778 L 363.031 241.778 L 363.031 241.778 Q 363.847 242.721 364.836 242.709 L 364.836 242.709 L 364.836 242.709 Q 365.385 242.703 365.821 242.387 L 365.821 242.387 L 365.821 242.387 Q 366.256 242.07 366.655 241.736 L 366.655 241.736 L 366.655 241.736 Q 367.742 240.735 368.529 239.115 L 368.529 239.115 L 368.529 239.115 Q 369.315 237.495 369.842 235.548 L 369.842 235.548 L 369.842 235.548 Q 370.369 233.602 370.71 231.456 L 370.71 231.456 L 370.71 231.456 Q 371.051 229.31 371.21 227.221 L 371.21 227.221 L 371.21 227.221 Q 371.369 225.133 371.42 223.246 L 371.42 223.246 L 371.42 223.246 Q 371.472 221.36 371.455 219.933 Z " fill-rule="evenodd" id="Compound Path" fill="rgb(255,255,255)"/><path d=" M 167.649 259.067 L 167.649 259.067 Q 161.729 259.067 157.577 256.952 L 157.577 256.952 L 157.577 256.952 Q 153.425 254.837 151.3 251.205 L 151.3 251.205 L 151.3 251.205 Q 149.174 247.573 149.174 243.08 L 149.174 243.08 L 149.174 243.08 Q 149.174 237.24 151.737 232.11 L 151.737 232.11 L 151.737 232.11 Q 154.3 226.981 159.405 223.799 L 159.405 223.799 L 159.405 223.799 Q 164.51 220.616 171.701 220.616 L 171.701 220.616 L 171.701 220.616 Q 176.111 220.616 179.488 222.151 L 179.488 222.151 L 179.488 222.151 Q 182.865 223.686 184.772 226.7 L 184.772 226.7 L 184.772 226.7 Q 186.679 229.714 186.679 234.02 L 186.679 234.02 L 186.679 234.02 Q 186.679 238.325 185.11 241.62 L 185.11 241.62 L 185.11 241.62 Q 183.54 244.915 181.018 246.693 L 181.018 246.693 L 181.018 246.693 Q 178.495 248.472 175.753 248.472 L 175.753 248.472 L 175.753 248.472 Q 171.701 248.472 170.509 245.327 L 170.509 245.327 L 170.509 245.327 Q 169.754 246.787 168.463 247.629 L 168.463 247.629 L 168.463 247.629 Q 167.172 248.472 165.543 248.472 L 165.543 248.472 L 165.543 248.472 Q 162.881 248.472 161.391 246.806 L 161.391 246.806 L 161.391 246.806 Q 159.901 245.14 159.901 242.369 L 159.901 242.369 L 159.901 242.369 Q 159.901 239.374 161.371 236.697 L 161.371 236.697 L 161.371 236.697 Q 162.841 234.02 165.285 232.391 L 165.285 232.391 L 165.285 232.391 Q 167.728 230.763 170.469 230.763 L 170.469 230.763 L 170.469 230.763 Q 171.343 230.763 171.641 231.081 L 171.641 231.081 L 171.641 231.081 Q 171.939 231.399 172.138 232.223 L 172.138 232.223 L 172.138 232.223 Q 172.972 232.073 173.886 232.073 L 173.886 232.073 L 173.886 232.073 Q 175.833 232.073 175.833 233.383 L 175.833 233.383 L 175.833 233.383 Q 175.833 234.17 175.237 237.127 L 175.237 237.127 L 175.237 237.127 Q 174.323 241.433 174.323 243.118 L 174.323 243.118 L 174.323 243.118 Q 174.323 243.754 174.76 244.166 L 174.76 244.166 L 174.76 244.166 Q 175.197 244.578 176.19 244.578 L 176.19 244.578 L 176.19 244.578 Q 177.501 244.578 178.892 243.174 L 178.892 243.174 L 178.892 243.174 Q 180.283 241.77 181.216 239.318 L 181.216 239.318 L 181.216 239.318 Q 182.15 236.865 182.15 233.945 L 182.15 233.945 L 182.15 233.945 Q 182.15 229.452 179.23 227.093 L 179.23 227.093 L 179.23 227.093 Q 176.31 224.735 171.224 224.735 L 171.224 224.735 L 171.224 224.735 Q 165.781 224.735 161.967 227.243 L 161.967 227.243 L 161.967 227.243 Q 158.153 229.752 156.246 233.889 L 156.246 233.889 L 156.246 233.889 Q 154.339 238.026 154.339 242.893 L 154.339 242.893 L 154.339 242.893 Q 154.339 248.397 157.696 251.71 L 157.696 251.71 L 157.696 251.71 Q 161.054 255.024 167.808 255.024 L 167.808 255.024 L 167.808 255.024 Q 170.906 255.024 173.946 254.256 L 173.946 254.256 L 173.946 254.256 Q 176.985 253.489 180.243 251.879 L 180.243 251.879 L 180.243 251.879 Q 180.759 251.617 181.236 251.617 L 181.236 251.617 L 181.236 251.617 Q 182.031 251.617 182.547 252.197 L 182.547 252.197 L 182.547 252.197 Q 183.064 252.777 183.064 253.601 L 183.064 253.601 L 183.064 253.601 Q 183.064 254.2 182.746 254.743 L 182.746 254.743 L 182.746 254.743 Q 182.428 255.286 181.753 255.66 L 181.753 255.66 L 181.753 255.66 Q 178.892 257.308 175.138 258.188 L 175.138 258.188 L 175.138 258.188 Q 171.383 259.067 167.649 259.067 L 167.649 259.067 L 167.649 259.067 Z  M 166.735 244.69 L 166.735 244.69 Q 167.609 244.69 168.403 243.717 L 168.403 243.717 L 168.403 243.717 Q 169.198 242.743 169.556 241.134 L 169.556 241.134 L 171.026 234.245 L 171.026 234.245 Q 169.357 234.282 167.947 235.424 L 167.947 235.424 L 167.947 235.424 Q 166.536 236.566 165.702 238.438 L 165.702 238.438 L 165.702 238.438 Q 164.868 240.31 164.868 242.406 L 164.868 242.406 L 164.868 242.406 Q 164.868 243.567 165.364 244.129 L 165.364 244.129 L 165.364 244.129 Q 165.861 244.69 166.735 244.69 L 166.735 244.69 L 166.735 244.69 Z " fill-rule="evenodd" id="Compound Path" fill="rgb(255,255,255)"/></g></svg>