<?xml version="1.0" standalone="no"?><!-- Generator: Gravit.io --><svg xmlns="http://www.w3.org/2000/svg" xmlns:xlink="http://www.w3.org/1999/xlink" style="isolation:isolate" viewBox="208.697 13.314 135.711 28.331" width="135.711" height="28.331"><g id="Group"><path d=" M 344.407 41.264 C 344.164 41.498 343.823 41.645 343.446 41.645 L 303.973 41.645 C 303.235 41.645 302.635 41.084 302.635 40.392 L 302.635 23.415 C 302.635 22.724 303.235 22.163 303.973 22.163 L 343.446 22.163 C 343.815 22.163 344.149 22.303 344.391 22.529 L 339.567 27.026 L 334.349 31.889 L 339.567 36.752 L 344.407 41.264 Z  M 327.381 29.883" fill-rule="evenodd" id="Compound Path" fill="rgb(232,224,224)"/><path d=" M 304.426 41.645 L 303.941 41.645 C 303.202 41.645 302.603 41.045 302.603 40.306 L 302.603 37.041 L 315.694 33.714 L 316.903 38.473 L 304.426 41.645 Z " id="Path" fill="rgb(153,118,135)"/><path d=" M 208.697 41.264 C 208.94 41.498 209.281 41.645 209.658 41.645 L 249.131 41.645 C 249.869 41.645 250.469 41.084 250.469 40.392 L 250.469 23.415 C 250.469 22.724 249.869 22.163 249.131 22.163 L 209.658 22.163 C 209.289 22.163 208.954 22.303 208.712 22.529 L 213.537 27.026 L 218.754 31.889 L 213.537 36.752 L 208.697 41.264 Z  M 225.722 29.883" fill-rule="evenodd" id="Compound Path" fill="rgb(232,224,224)"/><path d=" M 248.677 41.645 L 249.163 41.645 C 249.901 41.645 250.501 41.045 250.501 40.306 L 250.501 37.041 L 237.41 33.714 L 236.2 38.473 L 248.677 41.645 Z " id="Path" fill="rgb(153,118,135)"/><path d="M 236.97 13.314 L 316.158 13.314 C 317.645 13.314 318.852 14.521 318.852 16.008 L 318.852 35.891 C 318.852 37.377 317.645 38.585 316.158 38.585 L 236.97 38.585 C 235.483 38.585 234.276 37.377 234.276 35.891 L 234.276 16.008 C 234.276 14.521 235.483 13.314 236.97 13.314 Z" style="stroke:none;fill:#FFFFFF;stroke-miterlimit:10;"/><path d=" M 253.405 31.268 L 253.405 31.268 Q 252.651 31.268 252.015 31.06 L 252.015 31.06 L 252.015 31.06 Q 251.378 30.853 250.911 30.469 L 250.911 30.469 L 250.911 30.469 Q 250.436 30.077 250.172 29.531 L 250.172 29.531 L 250.172 29.531 Q 249.908 28.984 249.901 28.329 L 249.901 28.329 L 249.901 28.329 Q 249.901 27.221 250.602 26.407 L 250.602 26.407 L 250.602 26.407 Q 251.295 25.593 252.832 24.915 L 252.832 24.915 L 252.832 24.915 Q 252.199 24.259 251.868 23.709 L 251.868 23.709 L 251.868 23.709 Q 251.446 23.016 251.446 22.323 L 251.446 22.323 L 251.446 22.323 Q 251.446 21.742 251.694 21.23 L 251.694 21.23 L 251.694 21.23 Q 251.943 20.717 252.395 20.326 L 252.395 20.326 L 252.395 20.326 Q 252.855 19.934 253.461 19.715 L 253.461 19.715 L 253.461 19.715 Q 254.068 19.497 254.769 19.497 L 254.769 19.497 L 254.769 19.497 Q 255.379 19.497 255.914 19.647 L 255.914 19.647 L 255.914 19.647 Q 256.449 19.798 256.841 20.084 L 256.841 20.084 L 256.841 20.084 Q 257.233 20.371 257.452 20.766 L 257.452 20.766 L 257.452 20.766 Q 257.67 21.162 257.685 21.637 L 257.685 21.637 L 257.685 21.637 Q 257.685 22.413 257.128 23.103 L 257.128 23.103 L 257.128 23.103 Q 256.57 23.792 255.417 24.425 L 255.417 24.425 L 255.417 24.425 Q 255.899 24.87 256.204 25.182 L 256.204 25.182 L 256.204 25.182 Q 256.51 25.495 256.758 25.849 L 256.758 25.849 L 256.758 25.849 Q 257.369 26.724 257.399 27.688 L 257.399 27.688 L 257.399 27.688 Q 257.399 28.404 257.097 29.052 L 257.097 29.052 L 257.097 29.052 Q 256.796 29.7 256.253 30.19 L 256.253 30.19 L 256.253 30.19 Q 255.703 30.687 254.972 30.97 L 254.972 30.97 L 254.972 30.97 Q 254.241 31.253 253.405 31.268 L 253.405 31.268 L 253.405 31.268 Z  M 254.769 23.815 L 254.769 23.815 Q 255.349 23.317 255.688 22.654 L 255.688 22.654 L 255.688 22.654 Q 256.027 21.999 256.027 21.396 L 256.027 21.396 L 256.027 21.396 Q 256.027 20.853 255.752 20.544 L 255.752 20.544 L 255.752 20.544 Q 255.477 20.235 255.003 20.235 L 255.003 20.235 L 255.003 20.235 Q 254.709 20.235 254.452 20.348 L 254.452 20.348 L 254.452 20.348 Q 254.196 20.461 254.015 20.672 L 254.015 20.672 L 254.015 20.672 Q 253.834 20.876 253.733 21.158 L 253.733 21.158 L 253.733 21.158 Q 253.631 21.441 253.631 21.772 L 253.631 21.772 L 253.631 21.772 Q 253.631 22.323 253.97 22.858 L 253.97 22.858 L 253.97 22.858 Q 254.256 23.325 254.769 23.815 L 254.769 23.815 L 254.769 23.815 Z  M 253.405 30.205 L 253.405 30.205 Q 253.767 30.205 254.079 30.054 L 254.079 30.054 L 254.079 30.054 Q 254.392 29.904 254.626 29.632 L 254.626 29.632 L 254.626 29.632 Q 254.852 29.361 254.98 29.011 L 254.98 29.011 L 254.98 29.011 Q 255.108 28.66 255.108 28.276 L 255.108 28.276 L 255.108 28.276 Q 255.1 27.583 254.596 26.829 L 254.596 26.829 L 254.596 26.829 Q 254.392 26.528 254.121 26.226 L 254.121 26.226 L 254.121 26.226 Q 253.85 25.925 253.465 25.54 L 253.465 25.54 L 253.465 25.54 Q 252.727 26.045 252.331 26.761 L 252.331 26.761 L 252.331 26.761 Q 251.935 27.477 251.935 28.314 L 251.935 28.314 L 251.935 28.314 Q 251.935 29.173 252.35 29.693 L 252.35 29.693 L 252.35 29.693 Q 252.757 30.205 253.405 30.205 L 253.405 30.205 L 253.405 30.205 Z  M 257.926 27.748 L 258.205 26.535 L 261.287 26.535 L 261.031 27.748 L 257.926 27.748 L 257.926 27.748 Z  M 263.563 31.177 L 265.658 21.358 L 267.942 21.057 L 266.849 26.211 L 266.849 26.211 Q 267.58 26.158 268.243 25.533 L 268.243 25.533 L 268.243 25.533 Q 268.846 24.968 269.2 24.101 L 269.2 24.101 L 269.2 24.101 Q 269.547 23.272 269.547 22.413 L 269.547 22.413 L 269.547 22.413 Q 269.547 21.509 269.102 20.928 L 269.102 20.928 L 269.102 20.928 Q 268.861 20.635 268.492 20.473 L 268.492 20.473 L 268.492 20.473 Q 268.122 20.311 267.633 20.311 L 267.633 20.311 L 267.633 20.311 Q 266.698 20.311 265.956 20.567 L 265.956 20.567 L 265.956 20.567 Q 265.214 20.823 264.694 21.305 L 264.694 21.305 L 264.694 21.305 Q 264.174 21.788 263.906 22.488 L 263.906 22.488 L 263.906 22.488 Q 263.639 23.189 263.639 24.063 L 263.639 24.063 L 263.639 24.063 Q 263.639 24.546 263.744 24.832 L 263.744 24.832 L 263.744 24.832 Q 263.774 24.93 263.819 25.005 L 263.819 25.005 L 263.819 25.005 Q 263.85 25.058 263.85 25.111 L 263.85 25.111 L 263.85 25.111 Q 263.013 25.111 262.629 24.779 L 262.629 24.779 L 262.629 24.779 Q 262.199 24.418 262.199 23.611 L 262.199 23.611 L 262.199 23.611 Q 262.199 23.106 262.418 22.613 L 262.418 22.613 L 262.418 22.613 Q 262.636 22.119 263.036 21.659 L 263.036 21.659 L 263.036 21.659 Q 263.412 21.222 263.936 20.842 L 263.936 20.842 L 263.936 20.842 Q 264.46 20.461 265.07 20.182 L 265.07 20.182 L 265.07 20.182 Q 266.351 19.602 267.617 19.602 L 267.617 19.602 L 267.617 19.602 Q 269.403 19.602 270.391 20.529 L 270.391 20.529 L 270.391 20.529 Q 270.828 20.944 271.042 21.486 L 271.042 21.486 L 271.042 21.486 Q 271.257 22.029 271.257 22.639 L 271.257 22.639 L 271.257 22.639 Q 271.257 23.385 270.952 24.124 L 270.952 24.124 L 270.952 24.124 Q 270.647 24.862 270.074 25.442 L 270.074 25.442 L 270.074 25.442 Q 269.471 26.06 268.639 26.418 L 268.639 26.418 L 268.639 26.418 Q 267.806 26.776 266.804 26.776 L 266.804 26.776 L 266.721 26.776 L 265.779 31.177 L 263.563 31.177 L 263.563 31.177 Z  M 272.486 31.268 L 272.486 31.268 Q 271.747 31.268 271.318 30.831 L 271.318 30.831 L 271.318 30.831 Q 270.835 30.348 270.835 29.421 L 270.835 29.421 L 270.835 29.421 Q 270.835 28.984 270.956 28.412 L 270.956 28.412 L 272.003 23.461 L 274.226 23.461 L 273.119 28.705 L 273.119 28.705 Q 273.073 28.939 273.073 29.143 L 273.073 29.143 L 273.073 29.143 Q 273.073 29.776 273.533 29.776 L 273.533 29.776 L 273.533 29.776 Q 273.955 29.776 274.294 29.391 L 274.294 29.391 L 274.294 29.391 Q 274.565 29.067 274.769 28.412 L 274.769 28.412 L 275.816 23.461 L 278.04 23.461 L 276.932 28.705 L 276.932 28.705 Q 276.864 28.932 276.864 29.203 L 276.864 29.203 L 276.864 29.203 Q 276.864 29.519 277.015 29.647 L 277.015 29.647 L 277.015 29.647 Q 277.165 29.776 277.497 29.776 L 277.497 29.776 L 277.497 29.776 Q 277.926 29.776 278.266 29.391 L 278.266 29.391 L 278.266 29.391 Q 278.567 29.052 278.748 28.412 L 278.748 28.412 L 279.396 28.412 L 279.396 28.412 Q 278.981 29.587 278.394 30.273 L 278.394 30.273 L 278.394 30.273 Q 277.896 30.838 277.271 31.087 L 277.271 31.087 L 277.271 31.087 Q 276.811 31.268 276.299 31.268 L 276.299 31.268 L 276.299 31.268 Q 275.636 31.268 275.244 30.898 L 275.244 30.898 L 275.244 30.898 Q 274.852 30.529 274.769 29.806 L 274.769 29.806 L 274.769 29.806 Q 274.241 30.65 273.578 31.011 L 273.578 31.011 L 273.578 31.011 Q 273.104 31.268 272.486 31.268 L 272.486 31.268 L 272.486 31.268 Z  M 278.748 31.177 L 282.682 24.297 L 281.822 24.297 L 281.822 24.297 Q 281.408 24.297 281.22 24.335 L 281.22 24.335 L 281.22 24.335 Q 280.971 24.38 280.971 24.538 L 280.971 24.538 L 280.971 24.538 Q 280.971 24.576 281.001 24.583 L 281.001 24.583 L 281.001 24.583 Q 281.061 24.598 281.114 24.689 L 281.114 24.689 L 281.114 24.689 Q 281.137 24.742 281.137 24.877 L 281.137 24.877 L 281.137 24.877 Q 281.137 25.284 280.881 25.503 L 280.881 25.503 L 280.881 25.503 Q 280.639 25.699 280.308 25.699 L 280.308 25.699 L 280.308 25.699 Q 280.037 25.699 279.825 25.525 L 279.825 25.525 L 279.825 25.525 Q 279.599 25.337 279.599 25.02 L 279.599 25.02 L 279.599 25.02 Q 279.599 24.779 279.728 24.504 L 279.728 24.504 L 279.728 24.504 Q 279.856 24.229 280.082 24.003 L 280.082 24.003 L 280.082 24.003 Q 280.323 23.754 280.658 23.607 L 280.658 23.607 L 280.658 23.607 Q 280.994 23.461 281.385 23.461 L 281.385 23.461 L 285.357 23.461 L 281.574 29.987 L 281.574 29.987 Q 281.649 29.994 282.101 30.039 L 282.101 30.039 L 282.101 30.039 Q 282.418 30.084 282.742 30.084 L 282.742 30.084 L 282.742 30.084 Q 283.058 30.084 283.247 30.017 L 283.247 30.017 L 283.247 30.017 Q 283.435 29.949 283.473 29.776 L 283.473 29.776 L 283.473 29.776 Q 283.322 29.76 283.251 29.674 L 283.251 29.674 L 283.251 29.674 Q 283.179 29.587 283.179 29.451 L 283.179 29.451 L 283.179 29.451 Q 283.179 29.338 283.235 29.222 L 283.235 29.222 L 283.235 29.222 Q 283.292 29.105 283.397 29.007 L 283.397 29.007 L 283.397 29.007 Q 283.654 28.788 284.038 28.788 L 284.038 28.788 L 284.038 28.788 Q 284.385 28.788 284.554 28.992 L 284.554 28.992 L 284.554 28.992 Q 284.724 29.195 284.724 29.527 L 284.724 29.527 L 284.724 29.527 Q 284.724 29.798 284.596 30.088 L 284.596 30.088 L 284.596 30.088 Q 284.468 30.378 284.226 30.62 L 284.226 30.62 L 284.226 30.62 Q 283.97 30.876 283.62 31.026 L 283.62 31.026 L 283.62 31.026 Q 283.269 31.177 282.84 31.177 L 282.84 31.177 L 278.748 31.177 L 278.748 31.177 Z  M 285.357 31.177 L 289.29 24.297 L 288.431 24.297 L 288.431 24.297 Q 288.017 24.297 287.829 24.335 L 287.829 24.335 L 287.829 24.335 Q 287.58 24.38 287.58 24.538 L 287.58 24.538 L 287.58 24.538 Q 287.58 24.576 287.61 24.583 L 287.61 24.583 L 287.61 24.583 Q 287.67 24.598 287.723 24.689 L 287.723 24.689 L 287.723 24.689 Q 287.746 24.742 287.746 24.877 L 287.746 24.877 L 287.746 24.877 Q 287.746 25.284 287.489 25.503 L 287.489 25.503 L 287.489 25.503 Q 287.248 25.699 286.917 25.699 L 286.917 25.699 L 286.917 25.699 Q 286.645 25.699 286.434 25.525 L 286.434 25.525 L 286.434 25.525 Q 286.208 25.337 286.208 25.02 L 286.208 25.02 L 286.208 25.02 Q 286.208 24.779 286.336 24.504 L 286.336 24.504 L 286.336 24.504 Q 286.465 24.229 286.691 24.003 L 286.691 24.003 L 286.691 24.003 Q 286.932 23.754 287.267 23.607 L 287.267 23.607 L 287.267 23.607 Q 287.602 23.461 287.994 23.461 L 287.994 23.461 L 291.966 23.461 L 288.183 29.987 L 288.183 29.987 Q 288.258 29.994 288.71 30.039 L 288.71 30.039 L 288.71 30.039 Q 289.027 30.084 289.351 30.084 L 289.351 30.084 L 289.351 30.084 Q 289.667 30.084 289.856 30.017 L 289.856 30.017 L 289.856 30.017 Q 290.044 29.949 290.082 29.776 L 290.082 29.776 L 290.082 29.776 Q 289.931 29.76 289.859 29.674 L 289.859 29.674 L 289.859 29.674 Q 289.788 29.587 289.788 29.451 L 289.788 29.451 L 289.788 29.451 Q 289.788 29.338 289.844 29.222 L 289.844 29.222 L 289.844 29.222 Q 289.901 29.105 290.006 29.007 L 290.006 29.007 L 290.006 29.007 Q 290.263 28.788 290.647 28.788 L 290.647 28.788 L 290.647 28.788 Q 290.994 28.788 291.163 28.992 L 291.163 28.992 L 291.163 28.992 Q 291.333 29.195 291.333 29.527 L 291.333 29.527 L 291.333 29.527 Q 291.333 29.798 291.205 30.088 L 291.205 30.088 L 291.205 30.088 Q 291.076 30.378 290.835 30.62 L 290.835 30.62 L 290.835 30.62 Q 290.579 30.876 290.229 31.026 L 290.229 31.026 L 290.229 31.026 Q 289.878 31.177 289.449 31.177 L 289.449 31.177 L 285.357 31.177 L 285.357 31.177 Z  M 293.495 31.268 L 293.495 31.268 Q 292.757 31.268 292.327 30.831 L 292.327 30.831 L 292.327 30.831 Q 291.845 30.348 291.845 29.421 L 291.845 29.421 L 291.845 29.421 Q 291.845 28.984 291.966 28.412 L 291.966 28.412 L 293.616 20.68 L 295.899 20.371 L 294.128 28.705 L 294.128 28.705 Q 294.068 28.901 294.068 29.203 L 294.068 29.203 L 294.068 29.203 Q 294.068 29.519 294.215 29.647 L 294.215 29.647 L 294.215 29.647 Q 294.362 29.776 294.694 29.776 L 294.694 29.776 L 294.694 29.776 Q 294.92 29.776 295.135 29.674 L 295.135 29.674 L 295.135 29.674 Q 295.349 29.572 295.53 29.391 L 295.53 29.391 L 295.53 29.391 Q 295.899 29.022 296.088 28.412 L 296.088 28.412 L 296.736 28.412 L 296.736 28.412 Q 296.321 29.58 295.696 30.273 L 295.696 30.273 L 295.696 30.273 Q 295.168 30.838 294.505 31.087 L 294.505 31.087 L 294.505 31.087 Q 294.023 31.268 293.495 31.268 L 293.495 31.268 L 293.495 31.268 Z  M 298.296 31.268 L 298.296 31.268 Q 297.158 31.268 296.54 30.695 L 296.54 30.695 L 296.54 30.695 Q 295.884 30.084 295.884 28.818 L 295.884 28.818 L 295.884 28.818 Q 295.884 28.344 295.979 27.763 L 295.979 27.763 L 295.979 27.763 Q 296.073 27.183 296.261 26.603 L 296.261 26.603 L 296.261 26.603 Q 296.472 25.955 296.8 25.375 L 296.8 25.375 L 296.8 25.375 Q 297.128 24.794 297.565 24.35 L 297.565 24.35 L 297.565 24.35 Q 298.575 23.325 300.052 23.325 L 300.052 23.325 L 300.052 23.325 Q 300.994 23.325 301.423 23.777 L 301.423 23.777 L 301.423 23.777 Q 301.755 24.131 301.755 24.802 L 301.755 24.802 L 301.755 24.802 Q 301.755 25.458 301.468 26.034 L 301.468 26.034 L 301.468 26.034 Q 301.182 26.61 300.677 27.055 L 300.677 27.055 L 300.677 27.055 Q 300.172 27.492 299.532 27.752 L 299.532 27.752 L 299.532 27.752 Q 298.891 28.012 298.205 28.057 L 298.205 28.057 L 298.205 28.057 Q 298.168 28.449 298.168 28.675 L 298.168 28.675 L 298.168 28.675 Q 298.168 29.429 298.454 29.715 L 298.454 29.715 L 298.454 29.715 Q 298.703 29.971 299.283 29.971 L 299.283 29.971 L 299.283 29.971 Q 300.119 29.971 300.813 29.519 L 300.813 29.519 L 300.813 29.519 Q 301.107 29.331 301.378 29.071 L 301.378 29.071 L 301.378 29.071 Q 301.649 28.811 302.011 28.412 L 302.011 28.412 L 302.538 28.412 L 302.538 28.412 Q 301.807 29.647 300.858 30.378 L 300.858 30.378 L 300.858 30.378 Q 299.69 31.268 298.296 31.268 L 298.296 31.268 L 298.296 31.268 Z  M 298.326 27.319 L 298.326 27.319 Q 298.755 27.289 299.162 27.07 L 299.162 27.07 L 299.162 27.07 Q 299.569 26.852 299.886 26.497 L 299.886 26.497 L 299.886 26.497 Q 300.202 26.136 300.383 25.687 L 300.383 25.687 L 300.383 25.687 Q 300.564 25.239 300.564 24.772 L 300.564 24.772 L 300.564 24.772 Q 300.564 24.463 300.477 24.301 L 300.477 24.301 L 300.477 24.301 Q 300.391 24.139 300.18 24.139 L 300.18 24.139 L 300.18 24.139 Q 299.901 24.139 299.618 24.41 L 299.618 24.41 L 299.618 24.41 Q 299.336 24.681 299.072 25.156 L 299.072 25.156 L 299.072 25.156 Q 298.831 25.601 298.635 26.166 L 298.635 26.166 L 298.635 26.166 Q 298.439 26.731 298.326 27.319 L 298.326 27.319 L 298.326 27.319 Z " fill-rule="evenodd" id="Compound Path" fill="rgb(86,15,128)"/></g></svg>