<svg width="64" height="64" xmlns="http://www.w3.org/2000/svg"><path fill-rule="evenodd" clip-rule="evenodd" d="M31.905 1C14.289 1 0 15.291 0 32.907c0 14.094 9.198 26.033 21.727 30.34 1.564.196 2.153-.783 2.153-1.568v-5.477c-8.81 1.956-10.767-4.306-10.767-4.306-1.37-3.72-3.524-4.702-3.524-4.702-2.935-1.955.196-1.955.196-1.955 3.131.196 4.892 3.328 4.892 3.328 2.938 4.892 7.44 3.523 9.202 2.739.193-2.153 1.172-3.523 1.955-4.306-7.045-.782-14.485-3.523-14.485-15.855 0-3.522 1.175-6.262 3.328-8.611-.391-.784-1.37-4.111.392-8.417 0 0 2.74-.783 8.808 3.327 2.543-.782 5.283-.978 8.024-.978 2.738 0 5.48.39 8.025.977 6.068-4.11 8.808-3.328 8.808-3.328 1.762 4.306.586 7.634.392 8.417a12.659 12.659 0 0 1 3.324 8.612c0 12.332-7.437 14.877-14.484 15.66 1.175.978 2.152 2.936 2.152 5.872v8.808c0 .783.59 1.76 2.154 1.567C54.996 58.745 64 46.803 64 32.711 63.805 15.29 49.515 1.003 31.9 1.003L31.904 1z" /></svg>
