<svg width="64" height="64" xmlns="http://www.w3.org/2000/svg"><path d="M35.55 24.5c-1.016.5-2.161 1-3.016 1s-2.024-.413-2.5-2 0-3 0-3c.422-1.306 1.249-1.78 2.113-2.275.129-.074.258-.148.387-.225 2.5-1.5 8.67-3.133 13-3.407.52-.033 1.027-.056 1.515-.071V7l15 11-15 11v-7.474c-.348.012-.706.03-1.072.053-3.905.247-6.811 1.14-10.428 2.921zM4.724 51.953l.072.003c.386.016 1.32.055 1.84.044a28.493 28.493 0 0 0 4.447-.453C14.671 50.9 18.68 49.62 23.034 46c.276-.23.776-.728 1.276-1.728s.517-2.051-.308-3.654c-.692-1.346-1.707-1.846-2.692-1.846-.746 0-1.401.61-2.084 1.246-.218.204-.44.41-.668.6-3.175 2.64-5.954 3.541-8.72 4.04a21.504 21.504 0 0 1-3.346.343 14.878 14.878 0 0 1-1.103-.017l-.03-.002a3.5 3.5 0 0 0-.635 6.971z" fill="#000"/><path d="M21.01 16.118C16.654 12.498 7.533 11 4.174 11.706c-1.892.397-3.34 1.885-3.16 3.81.18 1.92 2.019 2.984 3.794 3.16 1.775.178.031-.001.031-.001 2.8.002 8.519.185 11.694 2.825 2.719 2.26 4.5 6 6.704 10.815.354.775.687 1.525 1.009 2.25 2.028 4.575 3.628 8.184 7.695 11.114 4.572 3.295 8.746 3.954 13.077 4.228.52.033 1.027.056 1.515.071V57.5l15-11-15-11v7.474c-.348-.012-.706-.03-1.073-.053-3.904-.247-6.47-.79-9.427-2.921-2.433-1.753-4.354-5.507-6.052-9.6l-.017-.042c-2.44-5.879-4.304-10.373-8.956-14.24z" /></svg>
