<svg xmlns="http://www.w3.org/2000/svg" style="isolation:isolate" viewBox="301.08 228.032 11.426 13.732" width="11.426" height="13.732"><path d="M306.44 230.349a5.688 5.688 0 0 0-3.682 1.667 5.661 5.661 0 0 0-1.678 4.035c0 1.519.602 2.96 1.678 4.036a5.688 5.688 0 0 0 4.035 1.677 5.664 5.664 0 0 0 4.036-1.677 5.69 5.69 0 0 0 1.677-4.036c0-1.519-1.017-1.79-1.582-1.58-.566.21-.792.866-.792 1.58a3.29 3.29 0 0 1-.981 2.358 3.29 3.29 0 0 1-2.358.981 3.29 3.29 0 0 1-2.358-.981 3.29 3.29 0 0 1-.981-2.358c0-.886.348-1.741.981-2.358a3.28 3.28 0 0 1 2.005-.963v2.414l2.371-1.778 2.37-1.778-2.37-1.778-2.371-1.778v2.317z"/></svg>
