<svg width="64" height="64" xmlns="http://www.w3.org/2000/svg"><g clip-path="url(#a)"><path d="M29.981 10.799a26.51 26.51 0 0 0-17.16 7.77A26.383 26.383 0 0 0 5 37.373c0 7.08 2.805 13.795 7.82 18.81A26.51 26.51 0 0 0 31.626 64a26.397 26.397 0 0 0 18.81-7.816 26.519 26.519 0 0 0 7.817-18.81c0-7.08-4.74-8.343-7.373-7.364-2.638.979-3.692 4.036-3.692 7.364a15.332 15.332 0 0 1-4.572 10.99 15.331 15.331 0 0 1-10.99 4.572 15.333 15.333 0 0 1-10.99-4.572 15.331 15.331 0 0 1-4.572-10.99c0-4.13 1.622-8.115 4.573-10.99a15.287 15.287 0 0 1 9.344-4.488v11.25l22.096-16.573L29.981 0v10.799z" /></g><defs><clipPath id="a"><path d="M0 0h64v64H0z"/></clipPath></defs></svg>
