<svg viewBox="0 0 64 64" fill="none" xmlns="http://www.w3.org/2000/svg"><rect width="64" height="64" rx="6" fill="#612193"/><rect x="6.4" y="6.4" width="14.933" height="14.933" rx="2" fill="#9C4ADD"/><rect x="24.533" y="6.4" width="14.933" height="14.933" rx="2" fill="#9C4ADD"/><rect x="42.667" y="6.4" width="14.933" height="14.933" rx="2" fill="#9C4ADD"/><rect x="6.4" y="25.6" width="14.933" height="14.933" rx="2" fill="#9C4ADD"/><rect x="24.533" y="25.6" width="14.933" height="14.933" rx="2" fill="#9C4ADD"/><rect x="42.667" y="25.6" width="14.933" height="14.933" rx="2" fill="#9C4ADD"/><rect x="6.4" y="43.733" width="14.933" height="14.933" rx="2" fill="#9C4ADD"/><rect x="24.533" y="43.733" width="14.933" height="14.933" rx="2" fill="#9C4ADD"/><path d="m41.065 48.215.002-.002c2.325-1.99 3.475-4.694 3.475-8.055 0-2.106-.541-3.958-1.64-5.534-.92-1.336-2.115-2.423-3.577-3.262a9.829 9.829 0 0 0 3.037-2.982c.94-1.455 1.405-3.117 1.405-4.972 0-3.255-1.089-5.875-3.295-7.8-2.181-1.934-5.11-2.875-8.73-2.875-3.637 0-6.576.95-8.758 2.902-2.187 1.94-3.267 4.55-3.267 7.773 0 1.853.455 3.514 1.377 4.968l.003.004a9.829 9.829 0 0 0 3.033 2.98 10.684 10.684 0 0 0-3.55 3.24c-1.097 1.592-1.638 3.452-1.638 5.558 0 3.346 1.16 6.042 3.5 8.031 2.332 1.981 5.459 2.944 9.325 2.944 3.864 0 6.983-.954 9.298-2.918zM28.398 36.184l.003-.003c.808-.837 1.894-1.273 3.316-1.273 1.44 0 2.534.437 3.34 1.273.81.838 1.235 1.971 1.235 3.452 0 1.522-.421 2.65-1.207 3.45l-.003.003c-.769.797-1.851 1.222-3.315 1.222-1.496 0-2.602-.44-3.387-1.269-.796-.84-1.213-1.958-1.213-3.406 0-1.5.426-2.63 1.231-3.45zm6.14-15.498.004.003c.65.738 1 1.743 1 3.07 0 1.361-.351 2.404-1.007 3.176l-.003.004c-.62.747-1.516 1.144-2.765 1.144-1.25 0-2.157-.397-2.794-1.148-.656-.772-1.006-1.814-1.006-3.177 0-1.382.352-2.399.996-3.115.636-.707 1.539-1.085 2.779-1.085 1.252 0 2.16.392 2.797 1.128z" fill="#fff" stroke="#A15CD8"/></svg>
