<svg width="64" height="64" xmlns="http://www.w3.org/2000/svg"><g clip-path="url(#a)"><path fill-rule="evenodd" clip-rule="evenodd" d="M47.106 12.191c-.154.008-.31.018-.468.028-2.09.136-4.588.604-6.852 1.215-2.244.605-3.455.864-4.739 1.654-.11.068-.22.133-.34.204l-.03.017c-.817.48-1.868 1.098-2.375 2.707v.001l-.007.022-.02.066a6.284 6.284 0 0 0-.18.967 6.208 6.208 0 0 0 .201 2.376c.28.956.79 1.635 1.427 2.064.621.42 1.295.556 1.849.556.572 0 1.166-.166 1.687-.359a15.32 15.32 0 0 0 1.556-.698c3.232-1.633 4.87-1.92 8.291-2.151v8.055l16.557-12.46-16.557-12.46v8.196zM4.997 53.725l-.026-.002c-2.354-.225-4.041-2.354-3.827-4.708.213-2.347 2.246-4.12 4.592-3.91l.016.001h.003l.156.009c.16.006.424.013.772.005.7-.014 1.725-.084 2.938-.309 3.08-.57 6.077-1.663 8.379-3.864l.027-.025c.296-.284.654-.627 1.036-.892.4-.278.925-.545 1.558-.545 1.326 0 2.594.721 3.388 2.306.42.838.662 1.603.707 2.34a3.958 3.958 0 0 1-.417 2.02c-.53 1.087-1.39 1.813-1.909 2.252l-.114.097c-4.187 3.572-7.67 4.182-11.137 4.825-1.729.32-3.21.425-4.281.447-.513.01-1.4-.027-1.753-.042l-.108-.005zm42.11-10.585c-3.407-.237-7.154-1.65-9.722-3.548-.968-.715-1.894-1.89-2.788-3.427-.888-1.526-1.706-3.34-2.485-5.269l-.016-.039c-.38-.94-.746-1.908-1.113-2.88-.69-1.823-1.386-3.665-2.199-5.384-1.27-2.687-2.89-5.234-5.404-7.357-2.567-2.169-6.696-3.532-10.456-4.28a39.837 39.837 0 0 0-5.342-.701c-1.562-.091-2.939-.053-3.852.143-2.122.458-3.935 2.24-3.712 4.69.106 1.167.592 2.031 1.417 2.588.756.51 1.691.687 2.547.774.617.063 1.292.111 1.956.158.464.033.922.066 1.351.103 1.097.094 2.139.226 3.089.476.189.05.536.114.936.188.166.03.342.063.519.097.65.124 1.435.285 2.237.498.807.213 1.606.473 2.287.787.697.321 1.187.661 1.46.994 2.783 3.389 4.243 6.92 5.895 10.917.396.958.803 1.944 1.243 2.96l.039.09c1.852 4.286 3.428 7.935 7.411 10.88 4.411 3.262 10.058 4.912 14.233 5.183.157.01.314.02.468.028v8.195l16.557-12.46-16.557-12.459v8.055z" /></g><defs><clipPath id="a"><path d="M0 0h64v64H0z"/></clipPath></defs></svg>
